<svg xmlns="http://www.w3.org/2000/svg" id="Layer_1" viewBox="0 0 288 288" width="288" height="288"><defs><style>.cls-1{fill:#eb8a53}.cls-2,.cls-3{stroke-linecap:round;stroke-linejoin:round}.cls-2{stroke-width:2px;fill:none;stroke:#000}.cls-3{fill:#fff;stroke:#fff}.cls-4{font-size:41px;fill:#231f20;font-family:CaveatBrush-Regular,Caveat Brush}.cls-5{letter-spacing:-.02em}.cls-6{letter-spacing:-.04em}.cls-7{letter-spacing:.04em}.cls-8{letter-spacing:-.04em}.cls-9{letter-spacing:-.02em}.cls-10{letter-spacing:-.04em}.cls-11{letter-spacing:-.02em}.cls-12{letter-spacing:-.01em}.cls-13{letter-spacing:-.06em}.cls-14{letter-spacing:0}</style></defs><path d="M80.29 118.74a28.79 28.79 0 0 1-4.7-.73 64.53 64.53 0 0 1-8-3.14 38.13 38.13 0 0 1-12-9.7 26.76 26.76 0 0 1-6.09-10.33c-.7-2.54-1.59-5.13-1.61-7.71C47.84 81.57 52 76.49 58 75a23.38 23.38 0 0 1 12 .19c1.28.36 2.58.66 3.87 1a23.35 23.35 0 0 1 9.25 4.45 81 81 0 0 1 9.26 8.23c1.94 2.08 3.15 4.71 4.64 7.13 1.9 3.07 2.11 6.54 2.49 9.93a10.67 10.67 0 0 1-.73 4.2 11.67 11.67 0 0 1-4.22 6 14.81 14.81 0 0 1-7.84 2.9c-2.14.14-4.31-.07-6.47-.13zM93.52 144c2.11-5 3.93-10.14 6.42-15a113.19 113.19 0 0 1 7.49-11.64 90.05 90.05 0 0 1 6.16-8.34 63.19 63.19 0 0 1 7.59-7.58 86.63 86.63 0 0 1 9.73-6.75 35.09 35.09 0 0 1 11.24-4.12c1.85-.38 3.73-.68 5.6-1a1.77 1.77 0 0 1 .5-.07c4.85.65 9.71 1.26 14 3.66a9 9 0 0 0 1.33.71c3.66 1.34 6.42 3.72 9.25 6 8.13 6.51 13.88 14.42 18.7 22.82 2.41 4.21 4.61 8.5 6.72 12.81a80 80 0 0 1 4.67 10.77 53.92 53.92 0 0 1 1.71 9.76 18.5 18.5 0 0 1-.11 4.93 12.18 12.18 0 0 1-5.92 8.85 28.55 28.55 0 0 1-8.66 3 36.64 36.64 0 0 1-8.66.53 59.69 59.69 0 0 1-9.4-1.12c-5.17-1-10.35-2.17-15.4-3.61a32.24 32.24 0 0 0-11.41-1.06c-3.38.28-6.62 1.45-9.9 2.28-3.45.88-6.84 1.89-10.3 2.73a48.08 48.08 0 0 1-6.14 1.1c-6.11.68-12.19.28-17.78-2.39a14.61 14.61 0 0 1-7.09-7.88c-2.76-6.59-1.79-12.97-.34-19.39zm38.69-81.32a53 53 0 0 1-1.08 7.16c-1.09 3.83-2.79 7.43-6.11 9.79-4 2.85-8.34 3.87-12.94 2.44a34.68 34.68 0 0 1-6.16-2.49 32.74 32.74 0 0 1-8.36-6.75 46.11 46.11 0 0 1-8.11-12 54.15 54.15 0 0 1-4-12.37 36 36 0 0 1-.34-11.9c.68-5.22 2.77-9.81 6.81-13.11a13.58 13.58 0 0 1 7.55-3.16c5.78-.48 10.71 1.44 15.29 4.83a41.52 41.52 0 0 1 11.51 13.3 56.69 56.69 0 0 1 4.89 11.39 29.26 29.26 0 0 1 1.05 12.87z" class="cls-1"/><path d="M90.43 148.81c2.19-5.53 4.09-11.18 6.65-16.55a131.43 131.43 0 0 1 7.62-12.9 104.71 104.71 0 0 1 6.24-9.25 69.32 69.32 0 0 1 7.62-8.45 88.76 88.76 0 0 1 9.71-7.59 33.68 33.68 0 0 1 11.12-4.75c1.83-.45 3.69-.82 5.53-1.23a1.73 1.73 0 0 1 .49-.08c4.75.61 9.5 1.17 13.66 3.71a8.83 8.83 0 0 0 1.29.75c3.57 1.38 6.22 3.93 8.95 6.35 7.83 7 13.29 15.49 17.83 24.58 2.28 4.54 4.34 9.19 6.31 13.86a89.24 89.24 0 0 1 4.34 11.68 63.17 63.17 0 0 1 1.45 10.65A22.13 22.13 0 0 1 199 165a14.18 14.18 0 0 1-6 9.81 27.21 27.21 0 0 1-8.57 3.45 32.72 32.72 0 0 1-8.51.77 52.57 52.57 0 0 1-9.2-1c-5.06-1-10.11-2.16-15-3.62a28.13 28.13 0 0 0-11.17-.92c-3.32.37-6.53 1.72-9.77 2.7-3.41 1-6.76 2.21-10.18 3.21a45.94 45.94 0 0 1-6 1.33c-6 .87-12 .56-17.4-2.25-3.47-1.79-5.51-5-6.78-8.46-2.65-7.1-1.55-14.1.01-21.21z" class="cls-2"/><path d="M197.92 52.07c-1.06 3.14-1.95 6.34-3.23 9.41a21.82 21.82 0 0 1-3.23 5 39.34 39.34 0 0 1-12.32 10.44c-4.6 2.41-9.64 3.35-14.85 1.63a18.18 18.18 0 0 1-10.47-8.79c-1.85-3.36-2.7-7-3.58-10.59a16.22 16.22 0 0 1-.36-4.91c.46-6.32.51-12.74 4.05-18.46a7.21 7.21 0 0 0 .53-1.25c1.13-3.37 3.27-6.18 5.43-9a26.62 26.62 0 0 1 9.19-7.79c5.44-2.81 11.17-3.72 17.16-1.35a18 18 0 0 1 9.22 8.33 34.43 34.43 0 0 1 3.89 12.53c.6 4.75-.25 9.37-1.34 13.95-.07.3-.15.59-.22.88zM230 95.79c-1.42 2.54-2.72 5.15-4.3 7.59a21.31 21.31 0 0 1-3.43 3.81 34.31 34.31 0 0 1-11.41 7.33c-4 1.49-8 1.65-11.59-.46a13.26 13.26 0 0 1-6.27-8.76 37.75 37.75 0 0 1-.63-9.44 15.58 15.58 0 0 1 .69-4.21c1.59-5.32 2.9-10.76 6.71-15.18a5.53 5.53 0 0 0 .65-1 31.83 31.83 0 0 1 5.9-7 23.65 23.65 0 0 1 8.53-5.47c4.68-1.7 9.21-1.77 13.29 1a13.29 13.29 0 0 1 5.35 8.23 31.2 31.2 0 0 1 .51 11.11A39 39 0 0 1 230.21 95c-.11.24-.22.48-.34.72z" class="cls-1"/><path d="M86.13 124.24a15.86 15.86 0 0 1-3.86.74 41.14 41.14 0 0 1-7.27-.89c-4.6-1-8.85-3.71-12.92-7a33.9 33.9 0 0 1-8.64-9.64 49.81 49.81 0 0 1-4.22-8.18c-2.19-6.27-1-13.4 3-17.09a13.67 13.67 0 0 1 9.22-3.79c1.11 0 2.21-.12 3.31-.21a16 16 0 0 1 8.76 2 74.9 74.9 0 0 1 10.21 6.22C86 88.1 88 90.68 90 92.91c2.63 2.84 4.14 6.69 5.75 10.39a18.25 18.25 0 0 1 1.07 5 16.47 16.47 0 0 1-.88 8.18 11.33 11.33 0 0 1-4.83 5.88 40.21 40.21 0 0 1-5 2zm139-27.24a30 30 0 0 1-7 9.81c-4.19 3.94-9 7.15-15 8a14.2 14.2 0 0 1-13.12-5c-2.66-3-3.53-6.64-4.13-10.41-1.46-9.11 2-16.87 6.62-24.42a34.91 34.91 0 0 1 8.16-9c3.37-2.73 7.21-5 11.78-5.45a14.39 14.39 0 0 1 12.79 4.72c3.11 3.37 3.77 7.49 4.4 11.69a29.72 29.72 0 0 1-.24 9.42 28.21 28.21 0 0 1-1.92 5.78c-.69 1.62-1.56 3.2-2.34 4.86zm-92.56-26.57a48.23 48.23 0 0 1-1.74 7.11c-1.51 3.76-3.68 7.23-7.56 9.29A17.22 17.22 0 0 1 108.62 88a41.38 41.38 0 0 1-6.71-3.11 37.13 37.13 0 0 1-8.85-7.62 47.63 47.63 0 0 1-8.17-12.93A51.92 51.92 0 0 1 81.3 51.5a33.13 33.13 0 0 1 .5-12 19 19 0 0 1 8.6-12.6 16.07 16.07 0 0 1 8.69-2.46c6.49.08 11.86 2.5 16.73 6.36a44.36 44.36 0 0 1 11.88 14.54 55.94 55.94 0 0 1 4.62 12 26.86 26.86 0 0 1 .25 13.09zm61.95-18.32c-1.11 3.36-2.05 6.78-3.39 10a24.31 24.31 0 0 1-3.35 5.33 41.72 41.72 0 0 1-12.7 11.25c-4.73 2.63-9.89 3.68-15.22 1.91a18.22 18.22 0 0 1-10.62-9.22c-1.87-3.56-2.71-7.4-3.57-11.23a17.58 17.58 0 0 1-.33-5.22c.53-6.73.64-13.57 4.31-19.7a6.47 6.47 0 0 0 .56-1.33c1.19-3.59 3.4-6.62 5.64-9.68a28.34 28.34 0 0 1 9.47-8.4c5.6-3.06 11.46-4.1 17.57-1.64a18.11 18.11 0 0 1 9.36 8.82 37 37 0 0 1 3.87 13.29c.57 5-.34 10-1.5 14.87q-.1.47-.24.93z" class="cls-2"/><path d="M125.45 169v-20a2.67 2.67 0 0 1 1-2c3.12-2.68 12.65-11 15.3-14.35C144.58 129 160 146.32 163.24 150a2.6 2.6 0 0 1 .66 1.52l1.49 18.63c.18 2.31-2.86 3.91-5.4 2.81a41.9 41.9 0 0 0-29.56-1.2c-2.43.78-4.98-.69-4.98-2.76z" class="cls-3"/><text class="cls-4" transform="translate(28.83 228.21)"><tspan class="cls-5">Ba</tspan><tspan x="35.79" y="0">r</tspan><tspan x="49.73" y="0" class="cls-5">r</tspan><tspan x="63.63" y="0" class="cls-6">h</tspan><tspan x="79.91" y="0" class="cls-5">ea</tspan><tspan x="110.74" y="0">d</tspan><tspan x="128.61" y="0" class="cls-7"> </tspan><tspan x="138.95" y="0" class="cls-8">A</tspan><tspan x="156.45" y="0" class="cls-9">ni</tspan><tspan x="182.36" y="0" class="cls-10">m</tspan><tspan x="203.03" y="0" class="cls-11">a</tspan><tspan x="220.62" y="0">l </tspan><tspan x="14.6" y="36" class="cls-12">R</tspan><tspan x="34.4" y="36" class="cls-6">e</tspan><tspan x="48.34" y="36" class="cls-13">s</tspan><tspan x="59.82" y="36" class="cls-6">cu</tspan><tspan x="89.67" y="36" class="cls-14">e </tspan><tspan x="121.6" y="36" class="cls-10">So</tspan><tspan x="151.74" y="36" class="cls-13">c</tspan><tspan x="164.04" y="36">i</tspan><tspan x="173.35" y="36" class="cls-10">e</tspan><tspan x="186.26" y="36" class="cls-13">t</tspan><tspan x="198.93" y="36">y</tspan></text></svg>