<svg xmlns="http://www.w3.org/2000/svg" id="Layer_1" viewBox="0 0 150 150" width="150" height="150"><defs><style>.cls-1{fill:#eb8a53}.cls-2,.cls-3{stroke-linecap:round;stroke-linejoin:round}.cls-2{stroke-width:2px;fill:none;stroke:#000}.cls-3{fill:#fff;stroke:#fff}.cls-4{fill:#231f20}</style></defs><path d="M33.4 75.28a18.84 18.84 0 0 1-3-.47 43.38 43.38 0 0 1-5.15-2 24.85 24.85 0 0 1-7.8-6.28 17.24 17.24 0 0 1-3.94-6.69 19.47 19.47 0 0 1-1-5A8.34 8.34 0 0 1 19 47a15.14 15.14 0 0 1 7.79.13c.83.23 1.67.42 2.5.62a15.18 15.18 0 0 1 6 2.88 52.63 52.63 0 0 1 6 5.33 27.27 27.27 0 0 1 3 4.61c1.23 2 1.37 4.24 1.61 6.43a6.69 6.69 0 0 1-.48 2.72 7.48 7.48 0 0 1-2.73 3.88 9.6 9.6 0 0 1-5.07 1.88c-1.38.09-2.79 0-4.19-.09zM42 91.6c1.37-3.25 2.55-6.57 4.16-9.71A73 73 0 0 1 51 74.35 59.16 59.16 0 0 1 55 69a40.58 40.58 0 0 1 4.91-4.9 55 55 0 0 1 6.29-4.37A22.66 22.66 0 0 1 73.43 57c1.2-.25 2.42-.44 3.63-.65a1.19 1.19 0 0 1 .32 0c3.14.42 6.28.82 9.06 2.37a5.93 5.93 0 0 0 .86.46 21.44 21.44 0 0 1 6 3.88 50.35 50.35 0 0 1 12.1 14.77c1.56 2.72 3 5.5 4.35 8.29a52.67 52.67 0 0 1 3 7 35.58 35.58 0 0 1 1.1 6.32 12.09 12.09 0 0 1-.07 3.18 7.89 7.89 0 0 1-3.83 5.73 18.36 18.36 0 0 1-5.61 1.94 23.71 23.71 0 0 1-5.6.34 37.65 37.65 0 0 1-6.08-.72c-3.35-.67-6.7-1.41-10-2.34a20.66 20.66 0 0 0-7.38-.68 38.61 38.61 0 0 0-6.41 1.47c-2.23.57-4.43 1.23-6.67 1.77a30.51 30.51 0 0 1-4 .71 20.9 20.9 0 0 1-11.51-1.55 9.43 9.43 0 0 1-4.58-5.1C40.39 99.92 41 95.79 42 91.6zM67 39a35.39 35.39 0 0 1-.7 4.63 11.12 11.12 0 0 1-4 6.34 9.18 9.18 0 0 1-8.3 1.58 23 23 0 0 1-4-1.61 21.17 21.17 0 0 1-5.41-4.37 30 30 0 0 1-5.25-7.79 35.19 35.19 0 0 1-2.61-8 23.49 23.49 0 0 1-.23-7.71 12.67 12.67 0 0 1 4.42-8.48 8.75 8.75 0 0 1 4.88-2.05 14.18 14.18 0 0 1 9.9 3.13 26.86 26.86 0 0 1 7.45 8.61 36.79 36.79 0 0 1 3.16 7.37A18.89 18.89 0 0 1 67 39z" class="cls-1"/><path d="M40 94.74c1.41-3.58 2.64-7.23 4.3-10.71a87 87 0 0 1 4.93-8.35 70.55 70.55 0 0 1 4-6 45.53 45.53 0 0 1 4.93-5.47 60.13 60.13 0 0 1 6.28-4.91 21.92 21.92 0 0 1 7.21-3.07c1.18-.29 2.38-.53 3.57-.79a1 1 0 0 1 .32-.06c3.07.39 6.15.76 8.84 2.4a5.93 5.93 0 0 0 .84.49c2.31.89 4 2.54 5.79 4.11 5.07 4.5 8.6 10 11.54 15.9 1.47 2.95 2.81 6 4.08 9a56.88 56.88 0 0 1 2.81 7.56 40.65 40.65 0 0 1 .94 6.89 14.09 14.09 0 0 1-.14 3.49 9.19 9.19 0 0 1-3.89 6.35 17.67 17.67 0 0 1-5.55 2.23 21.08 21.08 0 0 1-5.5.5 33.07 33.07 0 0 1-6-.67c-3.27-.66-6.55-1.39-9.74-2.34a18.34 18.34 0 0 0-7.23-.6 38 38 0 0 0-6.33 1.74c-2.2.67-4.37 1.44-6.58 2.08a29.15 29.15 0 0 1-3.92.86 18.29 18.29 0 0 1-11.26-1.45 9.42 9.42 0 0 1-4.39-5.48c-1.62-4.56-.85-9.1.15-13.7z" class="cls-2"/><path d="M109.53 32.13c-.69 2-1.26 4.11-2.09 6.09a14.32 14.32 0 0 1-2.09 3.22 25.36 25.36 0 0 1-8 6.75 12 12 0 0 1-9.61 1.06A11.73 11.73 0 0 1 81 43.56a26.64 26.64 0 0 1-2.32-6.85 10.63 10.63 0 0 1-.24-3.18c.3-4.09.33-8.25 2.62-12a3.89 3.89 0 0 0 .35-.81 21.22 21.22 0 0 1 3.51-5.85 17.32 17.32 0 0 1 6-5A12.92 12.92 0 0 1 102 9a11.7 11.7 0 0 1 6 5.4 22.25 22.25 0 0 1 2.51 8.11 25.26 25.26 0 0 1-.86 9l-.15.56zm20.74 28.3c-.92 1.64-1.77 3.33-2.79 4.91a13.31 13.31 0 0 1-2.22 2.47 22.42 22.42 0 0 1-7.38 4.74 8.19 8.19 0 0 1-11.52-6 24 24 0 0 1-.41-6.11 10.17 10.17 0 0 1 .44-2.72c1-3.44 1.88-7 4.35-9.83a4.71 4.71 0 0 0 .42-.64 20.43 20.43 0 0 1 3.84-4.5 15.24 15.24 0 0 1 5.5-3.54c3-1.11 6-1.15 8.6.64a8.58 8.58 0 0 1 3.47 5.32 20.46 20.46 0 0 1 .32 7.2 25.16 25.16 0 0 1-2.44 7.56c-.07.16-.15.31-.22.46z" class="cls-1"/><path d="M37.17 78.84a10.33 10.33 0 0 1-2.5.48 26 26 0 0 1-4.7-.58 21.28 21.28 0 0 1-8.37-4.49A22.38 22.38 0 0 1 16 68a32.77 32.77 0 0 1-2.73-5.3c-1.42-4.06-.63-8.67 1.93-11.06a8.83 8.83 0 0 1 6-2.45c.72 0 1.43-.08 2.14-.14A10.32 10.32 0 0 1 29 50.33a47.33 47.33 0 0 1 6.62 4 34 34 0 0 1 4.08 4.21c1.71 1.84 2.68 4.33 3.72 6.73a11.48 11.48 0 0 1 .69 3.23 10.67 10.67 0 0 1-.56 5.3 7.43 7.43 0 0 1-3.13 3.81 28 28 0 0 1-3.21 1.3zm89.97-17.66a19.59 19.59 0 0 1-4.57 6.36c-2.71 2.55-5.81 4.62-9.69 5.15a9.2 9.2 0 0 1-8.49-3.23c-1.73-1.95-2.28-4.3-2.67-6.74-1-5.9 1.32-10.92 4.28-15.81a22.65 22.65 0 0 1 5.28-5.8 14.64 14.64 0 0 1 7.63-3.53 9.32 9.32 0 0 1 8.27 3.05c2 2.19 2.45 4.85 2.85 7.57a19.18 19.18 0 0 1-.15 6.1 18.89 18.89 0 0 1-1.25 3.7c-.43 1.12-.99 2.14-1.49 3.18zM67.23 44a32.29 32.29 0 0 1-1.12 4.61 11 11 0 0 1-4.9 6 11.16 11.16 0 0 1-9.48.78 27.77 27.77 0 0 1-4.35-2 24.32 24.32 0 0 1-5.72-4.93 30.83 30.83 0 0 1-5.29-8.37 33.56 33.56 0 0 1-2.32-8.33 21.46 21.46 0 0 1 .32-7.76 12.24 12.24 0 0 1 5.57-8.13 10.29 10.29 0 0 1 5.62-1.59 17.29 17.29 0 0 1 10.83 4.11 28.82 28.82 0 0 1 7.69 9.41 36.53 36.53 0 0 1 3 7.75 17.41 17.41 0 0 1 .15 8.45zm40.1-11.84c-.72 2.17-1.33 4.38-2.2 6.5a15.48 15.48 0 0 1-2.13 3.45 26.75 26.75 0 0 1-8.22 7.28 12 12 0 0 1-9.84 1.24 11.82 11.82 0 0 1-6.88-6 28.9 28.9 0 0 1-2.31-7.27A11.22 11.22 0 0 1 75.5 34c.34-4.36.41-8.79 2.79-12.75a4.43 4.43 0 0 0 .36-.87 23.42 23.42 0 0 1 3.65-6.27 18.41 18.41 0 0 1 6.13-5.41c3.62-2 7.42-2.65 11.37-1.06a11.76 11.76 0 0 1 6.06 5.66 24 24 0 0 1 2.5 8.61 28 28 0 0 1-1 9.62c0 .2-.1.4-.15.6z" class="cls-2"/><path d="M62.62 107.81V94.88a1.73 1.73 0 0 1 .64-1.31c2-1.74 8.19-7.11 9.9-9.3S85 93.13 87.08 95.53a1.67 1.67 0 0 1 .43 1l1 12.06c.12 1.5-1.85 2.53-3.49 1.82a27.06 27.06 0 0 0-19.13-.78c-1.6.47-3.27-.48-3.27-1.82z" class="cls-3"/><path d="M33.42 131v-6.8h2.69c1.61 0 2.06.73 2.06 1.66a1.6 1.6 0 0 1-1.29 1.59 1.57 1.57 0 0 1 1.58 1.67c0 1.39-1.09 1.87-2.56 1.87zm2-4c.68 0 1.35-.12 1.35-.91s-.49-.78-1.13-.78h-.76V127zm.21 2.88c.78 0 1.31-.14 1.31-.88s-.53-.9-1.17-.9h-.89v1.78zm7.14-5.65l2.4 6.8h-1.58l-.59-1.66h-2.24l-.52 1.63h-1.5l2.23-6.8zm-.89 1.36l-.88 2.63h1.71zm9.35 5.41h-1.56l-1.34-2.59h-.93V131H46v-6.8h2.65c1.69 0 2.26.91 2.26 1.91a2 2 0 0 1-1.18 2zm-3.09-3.72c.68 0 1.23-.26 1.23-1s-.4-.89-1.17-.89h-.8v1.92zm9.12 3.72H55.7l-1.34-2.59h-.93V131H52v-6.8h2.65c1.69 0 2.25.91 2.25 1.91a2 2 0 0 1-1.17 2zm-3.09-3.72c.68 0 1.23-.26 1.23-1s-.4-.89-1.17-.89h-.8v1.92zm9.35 3.72h-1.45v-2.79h-2.6V131H58v-6.8h1.45v2.8h2.6v-2.76h1.45zm2.83-1.2h3v1.2H64.9v-6.8h4.31v1.21h-2.86V127h2.7v1.19h-2.7zm7.49-5.57l2.41 6.8h-1.59l-.56-1.66h-2.27l-.52 1.63h-1.49l2.22-6.8zm-.84 1.36l-.83 2.63h1.63zm4 5.41v-6.8h2.38c2.36 0 3.37 1.26 3.37 3.29a3.18 3.18 0 0 1-3.49 3.51zm2.16-1.17c1.56 0 2.11-.85 2.11-2.26 0-1.69-.66-2.21-2-2.21h-.82v4.47zm9.77-5.6l2.41 6.8h-1.59l-.56-1.66h-2.26L86.4 131h-1.49l2.22-6.8zm-.93 1.36l-.83 2.63h1.72zm8.07 5.41l-2.62-4.8v4.8h-1.32v-6.8h1.72l2.58 4.8v-4.81h1.31V131zm4.5 0h-1.45v-6.8h1.45zm8.6 0h-1.35v-5.34l-1.6 5.34h-1.31l-1.55-5.35V131H102v-6.8h2.16l1.44 5 1.43-5h2.15zm4.83-6.77l2.4 6.8h-1.59l-.56-1.66H112l-.53 1.66H110l2.22-6.8zm-.9 1.36l-.84 2.63H114zm5.56 4.21h2.91v1.2h-4.36v-6.8h1.45zm-73.51 12.49h-1.56l-1.34-2.58h-.93v2.58h-1.44v-6.79h2.65c1.69 0 2.26.91 2.26 1.91a2 2 0 0 1-1.18 2zm-3.09-3.71c.68 0 1.23-.26 1.23-1s-.4-.89-1.17-.89h-.8v1.92zm5.3 2.49h3v1.22h-4.45v-6.79h4.31v1.21h-2.86v1.59h2.69v1.19h-2.69zm5.1-3.86c0 1.42 3.53.55 3.53 3 0 1.54-1.25 2.15-2.6 2.15s-2.51-.4-2.63-2.16l1.31-.2c.12.66.36 1.21 1.36 1.21.6 0 1.12-.2 1.12-.83 0-1.42-3.54-.44-3.54-3 0-1.32 1.11-2 2.48-2 1.21 0 2.32.38 2.42 2l-1.32.15a1 1 0 0 0-1.12-1c-.69-.04-1.01.25-1.01.68zm4.15 1.79c0-2.16 1.14-3.6 3.28-3.6a2.37 2.37 0 0 1 2.67 2.45l-1.32.11c-.09-1-.5-1.36-1.37-1.36-1.11 0-1.77.71-1.77 2.33s.59 2.31 1.66 2.31a1.34 1.34 0 0 0 1.48-1.24l1.3.23a2.57 2.57 0 0 1-2.8 2.19c-2.25-.01-3.13-1.35-3.13-3.42zm10.75.64v-4.14h1.45v4.34c0 1.81-1 2.57-2.75 2.57-1.87 0-2.67-.83-2.67-2.6v-4.31h1.45v4.11c0 1.06.28 1.59 1.28 1.59s1.24-.45 1.24-1.56zm4.21 1.43h3v1.22h-4.45v-6.79h4.31v1.21h-2.86v1.59h2.69v1.19h-2.69zm6.77-3.86c0 1.42 3.53.55 3.53 3 0 1.54-1.25 2.15-2.6 2.15s-2.51-.4-2.63-2.16l1.31-.2c.12.66.36 1.21 1.36 1.21.6 0 1.12-.2 1.12-.83 0-1.42-3.54-.44-3.54-3 0-1.32 1.11-2 2.48-2 1.21 0 2.32.38 2.42 2l-1.32.15a1 1 0 0 0-1.12-1c-.69-.04-1.01.25-1.01.68zm4.15 1.71c0-2 1.12-3.55 3.31-3.55s3.12 1.53 3.12 3.42c0 2.21-1.06 3.62-3.27 3.62s-3.16-1.41-3.16-3.49zm4.94 0c0-1.57-.61-2.29-1.65-2.29s-1.8.73-1.8 2.31.66 2.29 1.73 2.29 1.72-.67 1.72-2.35zm2.2.08c0-2.16 1.14-3.6 3.27-3.6a2.39 2.39 0 0 1 2.68 2.45l-1.32.11c-.09-1-.5-1.36-1.38-1.36-1.1 0-1.76.71-1.76 2.33s.59 2.31 1.66 2.31a1.34 1.34 0 0 0 1.48-1.24l1.3.23a2.58 2.58 0 0 1-2.8 2.19c-2.25-.01-3.13-1.35-3.13-3.42zm8.31 3.29h-1.45v-6.79h1.45zm2.83-1.22h3v1.22h-4.44v-6.79h4.31v1.21h-2.87v1.59h2.7v1.19h-2.7zm5.41 1.22v-5.57h-2v-1.22h5.44v1.22h-2v5.57z" class="cls-4"/><path d="M113.34 142.29h-1.46v-2.54l-2.35-4.25h1.58l1.49 2.91h.05l1.44-2.91h1.46l-2.21 4.23z" class="cls-4"/></svg>