<svg xmlns="http://www.w3.org/2000/svg" id="Layer_1" viewBox="0 0 288 288" width="288" height="288"><defs><style>.cls-1{fill:#eb8a53}.cls-2,.cls-3{stroke-linecap:round;stroke-linejoin:round}.cls-2{stroke-width:2px;fill:none;stroke:#000}.cls-3{fill:#fff;stroke:#fff}.cls-4{fill:#231f20}</style></defs><path d="M80.29 118.74a28.79 28.79 0 0 1-4.7-.73 64.53 64.53 0 0 1-8-3.14 38.13 38.13 0 0 1-12-9.7 26.76 26.76 0 0 1-6.09-10.33c-.7-2.54-1.59-5.13-1.61-7.71C47.84 81.57 52 76.49 58 75a23.38 23.38 0 0 1 12 .19c1.28.36 2.58.66 3.87 1a23.35 23.35 0 0 1 9.25 4.45 81 81 0 0 1 9.26 8.23c1.94 2.08 3.15 4.71 4.64 7.13 1.9 3.07 2.11 6.54 2.49 9.93a10.67 10.67 0 0 1-.73 4.2 11.67 11.67 0 0 1-4.22 6 14.81 14.81 0 0 1-7.84 2.9c-2.14.14-4.31-.07-6.47-.13zM93.52 144c2.11-5 3.93-10.14 6.42-15a113.19 113.19 0 0 1 7.49-11.64 90.05 90.05 0 0 1 6.16-8.34 63.19 63.19 0 0 1 7.59-7.58 86.63 86.63 0 0 1 9.73-6.75 35.09 35.09 0 0 1 11.24-4.12c1.85-.38 3.73-.68 5.6-1a1.77 1.77 0 0 1 .5-.07c4.85.65 9.71 1.26 14 3.66a9 9 0 0 0 1.33.71c3.66 1.34 6.42 3.72 9.25 6 8.13 6.51 13.88 14.42 18.7 22.82 2.41 4.21 4.61 8.5 6.72 12.81a80 80 0 0 1 4.67 10.77 53.92 53.92 0 0 1 1.71 9.76 18.5 18.5 0 0 1-.11 4.93 12.18 12.18 0 0 1-5.92 8.85 28.55 28.55 0 0 1-8.66 3 36.64 36.64 0 0 1-8.66.53 59.69 59.69 0 0 1-9.4-1.12c-5.17-1-10.35-2.17-15.4-3.61a32.24 32.24 0 0 0-11.41-1.06c-3.38.28-6.62 1.45-9.9 2.28-3.45.88-6.84 1.89-10.3 2.73a48.08 48.08 0 0 1-6.14 1.1c-6.11.68-12.19.28-17.78-2.39a14.61 14.61 0 0 1-7.09-7.88c-2.76-6.59-1.79-12.97-.34-19.39zm38.69-81.32a53 53 0 0 1-1.08 7.16c-1.09 3.83-2.79 7.43-6.11 9.79-4 2.85-8.34 3.87-12.94 2.44a34.68 34.68 0 0 1-6.16-2.49 32.74 32.74 0 0 1-8.36-6.75 46.11 46.11 0 0 1-8.11-12 54.15 54.15 0 0 1-4-12.37 36 36 0 0 1-.34-11.9c.68-5.22 2.77-9.81 6.81-13.11a13.58 13.58 0 0 1 7.55-3.16c5.78-.48 10.71 1.44 15.29 4.83a41.52 41.52 0 0 1 11.51 13.3 56.69 56.69 0 0 1 4.89 11.39 29.26 29.26 0 0 1 1.05 12.87z" class="cls-1"/><path d="M90.43 148.81c2.19-5.53 4.09-11.18 6.65-16.55a131.43 131.43 0 0 1 7.62-12.9 104.71 104.71 0 0 1 6.24-9.25 69.32 69.32 0 0 1 7.62-8.45 88.76 88.76 0 0 1 9.71-7.59 33.68 33.68 0 0 1 11.12-4.75c1.83-.45 3.69-.82 5.53-1.23a1.73 1.73 0 0 1 .49-.08c4.75.61 9.5 1.17 13.66 3.71a8.83 8.83 0 0 0 1.29.75c3.57 1.38 6.22 3.93 8.95 6.35 7.83 7 13.29 15.49 17.83 24.58 2.28 4.54 4.34 9.19 6.31 13.86a89.24 89.24 0 0 1 4.34 11.68 63.17 63.17 0 0 1 1.45 10.65A22.13 22.13 0 0 1 199 165a14.18 14.18 0 0 1-6 9.81 27.21 27.21 0 0 1-8.57 3.45 32.72 32.72 0 0 1-8.51.77 52.57 52.57 0 0 1-9.2-1c-5.06-1-10.11-2.16-15-3.62a28.13 28.13 0 0 0-11.17-.92c-3.32.37-6.53 1.72-9.77 2.7-3.41 1-6.76 2.21-10.18 3.21a45.94 45.94 0 0 1-6 1.33c-6 .87-12 .56-17.4-2.25-3.47-1.79-5.51-5-6.78-8.46-2.65-7.1-1.55-14.1.01-21.21z" class="cls-2"/><path d="M197.92 52.07c-1.06 3.14-1.95 6.34-3.23 9.41a21.82 21.82 0 0 1-3.23 5 39.34 39.34 0 0 1-12.32 10.44c-4.6 2.41-9.64 3.35-14.85 1.63a18.18 18.18 0 0 1-10.47-8.79c-1.85-3.36-2.7-7-3.58-10.59a16.22 16.22 0 0 1-.36-4.91c.46-6.32.51-12.74 4.05-18.46a7.21 7.21 0 0 0 .53-1.25c1.13-3.37 3.27-6.18 5.43-9a26.62 26.62 0 0 1 9.19-7.79c5.44-2.81 11.17-3.72 17.16-1.35a18 18 0 0 1 9.22 8.33 34.43 34.43 0 0 1 3.89 12.53c.6 4.75-.25 9.37-1.34 13.95-.07.3-.15.59-.22.88zM230 95.79c-1.42 2.54-2.72 5.15-4.3 7.59a21.31 21.31 0 0 1-3.43 3.81 34.31 34.31 0 0 1-11.41 7.33c-4 1.49-8 1.65-11.59-.46a13.26 13.26 0 0 1-6.27-8.76 37.75 37.75 0 0 1-.63-9.44 15.58 15.58 0 0 1 .69-4.21c1.59-5.32 2.9-10.76 6.71-15.18a5.53 5.53 0 0 0 .65-1 31.83 31.83 0 0 1 5.9-7 23.65 23.65 0 0 1 8.53-5.47c4.68-1.7 9.21-1.77 13.29 1a13.29 13.29 0 0 1 5.35 8.23 31.2 31.2 0 0 1 .51 11.11A39 39 0 0 1 230.21 95c-.11.24-.22.48-.34.72z" class="cls-1"/><path d="M86.13 124.24a15.86 15.86 0 0 1-3.86.74 41.14 41.14 0 0 1-7.27-.89c-4.6-1-8.85-3.71-12.92-7a33.9 33.9 0 0 1-8.64-9.64 49.81 49.81 0 0 1-4.22-8.18c-2.19-6.27-1-13.4 3-17.09a13.67 13.67 0 0 1 9.22-3.79c1.11 0 2.21-.12 3.31-.21a16 16 0 0 1 8.76 2 74.9 74.9 0 0 1 10.21 6.22C86 88.1 88 90.68 90 92.91c2.63 2.84 4.14 6.69 5.75 10.39a18.25 18.25 0 0 1 1.07 5 16.47 16.47 0 0 1-.88 8.18 11.33 11.33 0 0 1-4.83 5.88 40.21 40.21 0 0 1-5 2zm139-27.24a30 30 0 0 1-7 9.81c-4.19 3.94-9 7.15-15 8a14.2 14.2 0 0 1-13.12-5c-2.66-3-3.53-6.64-4.13-10.41-1.46-9.11 2-16.87 6.62-24.42a34.91 34.91 0 0 1 8.16-9c3.37-2.73 7.21-5 11.78-5.45a14.39 14.39 0 0 1 12.79 4.72c3.11 3.37 3.77 7.49 4.4 11.69a29.72 29.72 0 0 1-.24 9.42 28.21 28.21 0 0 1-1.92 5.78c-.69 1.62-1.56 3.2-2.34 4.86zm-92.56-26.57a48.23 48.23 0 0 1-1.74 7.11c-1.51 3.76-3.68 7.23-7.56 9.29A17.22 17.22 0 0 1 108.62 88a41.38 41.38 0 0 1-6.71-3.11 37.13 37.13 0 0 1-8.85-7.62 47.63 47.63 0 0 1-8.17-12.93A51.92 51.92 0 0 1 81.3 51.5a33.13 33.13 0 0 1 .5-12 19 19 0 0 1 8.6-12.6 16.07 16.07 0 0 1 8.69-2.46c6.49.08 11.86 2.5 16.73 6.36a44.36 44.36 0 0 1 11.88 14.54 55.94 55.94 0 0 1 4.62 12 26.86 26.86 0 0 1 .25 13.09zm61.95-18.32c-1.11 3.36-2.05 6.78-3.39 10a24.31 24.31 0 0 1-3.35 5.33 41.72 41.72 0 0 1-12.7 11.25c-4.73 2.63-9.89 3.68-15.22 1.91a18.22 18.22 0 0 1-10.62-9.22c-1.87-3.56-2.71-7.4-3.57-11.23a17.58 17.58 0 0 1-.33-5.22c.53-6.73.64-13.57 4.31-19.7a6.47 6.47 0 0 0 .56-1.33c1.19-3.59 3.4-6.62 5.64-9.68a28.34 28.34 0 0 1 9.47-8.4c5.6-3.06 11.46-4.1 17.57-1.64a18.11 18.11 0 0 1 9.36 8.82 37 37 0 0 1 3.87 13.29c.57 5-.34 10-1.5 14.87q-.1.47-.24.93z" class="cls-2"/><path d="M125.45 169v-20a2.67 2.67 0 0 1 1-2c3.12-2.68 12.65-11 15.3-14.35C144.58 129 160 146.32 163.24 150a2.6 2.6 0 0 1 .66 1.52l1.49 18.63c.18 2.31-2.86 3.91-5.4 2.81a41.9 41.9 0 0 0-29.56-1.2c-2.43.78-4.98-.69-4.98-2.76z" class="cls-3"/><path d="M37.77 229.48h-.37a5 5 0 0 1-1.6-.12 7.34 7.34 0 0 1-3.36-1.31 8.14 8.14 0 0 1-.84-.88 1.68 1.68 0 0 1-.47-.76v-.54a2.42 2.42 0 0 0-.06-.65v-.33a1.34 1.34 0 0 1 0-.88 2.48 2.48 0 0 0 .08-1 9.51 9.51 0 0 1-.12-1.14c-.09-.11 0-.41.12-.91q.33-5.53.33-6.06l.2-1.23a4.71 4.71 0 0 1 .08-2.14v-.9a28.7 28.7 0 0 1 .33-3.32 3.49 3.49 0 0 0-1.1-1.27 2.14 2.14 0 0 1-.41-.64 1.82 1.82 0 0 1 .22-1.4 6.42 6.42 0 0 1 1.43-1.07 6.54 6.54 0 0 1 2.22-.94l.78-.33a7.82 7.82 0 0 1 2.29-.16 5.53 5.53 0 0 1 1.52.37 23.77 23.77 0 0 1 3.85 2.34 1.42 1.42 0 0 1 .74.65 4.88 4.88 0 0 1 1.37 1.56 8.49 8.49 0 0 1 .71 1.37 6.79 6.79 0 0 1-.41 3.16 17.48 17.48 0 0 1-2.7 3.94 7.65 7.65 0 0 1 1.39.69 3.68 3.68 0 0 0 .86.58 2.39 2.39 0 0 0 .23.28 3.19 3.19 0 0 1 .22.29l.33.21.41.61.62.53a3.54 3.54 0 0 1 .65.91 1.83 1.83 0 0 1 .66.94l.08.78a17 17 0 0 1-1.23 2.95 3.56 3.56 0 0 1-1.15 1.39l-.61.74a4.43 4.43 0 0 1-.92.82 9 9 0 0 0-1.13.95 3.56 3.56 0 0 0-.64.36 9.31 9.31 0 0 1-1.27.7 8.64 8.64 0 0 1-1.13.49 10.79 10.79 0 0 1-2.2.37zm-1.8-7.3l.08 1a1.7 1.7 0 0 1 0 1.06 2 2 0 0 0 0 1.07 4 4 0 0 0 0 .82 3.2 3.2 0 0 0 1.12-.33 7.18 7.18 0 0 1 1-.37 1.26 1.26 0 0 0 .53-.32c.68-.36 1.4-.77 2.13-1.23l1-.87c.79-.95 1.34-1.65 1.64-2.09l.24-.73c.36-.77 0-1.49-1-2.18a1.92 1.92 0 0 0-1.36-.65 4.67 4.67 0 0 0-1.68-.33l-1.8.41a2 2 0 0 1-.88.24 1.38 1.38 0 0 1-.84-.36v1.14a3 3 0 0 0-.17 1.52 8.86 8.86 0 0 1 .02 2.2zm4.75-10.94l.66-1.4a2.39 2.39 0 0 0 .18-.9v-.53a3.44 3.44 0 0 0 0-.51 1.4 1.4 0 0 0-.27-.62 1.29 1.29 0 0 0-.45-.41l-.84-.35h-.9a3.12 3.12 0 0 0-2.09.21 31.37 31.37 0 0 1-.45 3.77l-.25 2.83-.2 1.47a6.37 6.37 0 0 0 1.47-.45l.58-.49a5.24 5.24 0 0 0 1-.9 1.17 1.17 0 0 0 .45-.41L40 212c.09 0 .24-.11.45-.41zm18.08 13.04l-.61 1.59a18.55 18.55 0 0 1-1.19 1.77 1.55 1.55 0 0 1-1.38.86 5.29 5.29 0 0 1-1.94-.21 5.5 5.5 0 0 1-1.93-1.06 6.26 6.26 0 0 1-1.29-2.07 7 7 0 0 1-.68-2.4 17.31 17.31 0 0 1-.2-1.72v-1a6.42 6.42 0 0 1 .12-1.72c0-.11.1-.4.21-.86a9.72 9.72 0 0 1 1-3.28c1-2 2-3 3.12-3.08h.2a.52.52 0 0 0 .25 0H55a9.53 9.53 0 0 1 1.76.24 4.27 4.27 0 0 0 1.07.17l1.06.2a3.49 3.49 0 0 1 1.3.21 2.16 2.16 0 0 1 .86.36 7.79 7.79 0 0 1 .22.91c.11.52.19.89.23 1.12s.07.48.1.72a32.87 32.87 0 0 0 1.07 5.58c0 .08.05.2.08.37a7.55 7.55 0 0 0 .29 1c.16.48.28.88.36 1.21a11.91 11.91 0 0 0 .46 1.31 10.86 10.86 0 0 0 .73 1.44c.6.84.29 1.5-.94 2a2.8 2.8 0 0 1-.86.09 3.12 3.12 0 0 1-.78-.41 1 1 0 0 1-.78-.45l-.33-.09a.76.76 0 0 0-.49-.28c0-.06-.55-1.16-1.47-3.32a2.84 2.84 0 0 0-.14.8zm-1.27-7.84a2.37 2.37 0 0 0-.41-1.37 1.83 1.83 0 0 0-1.35-.55 3.59 3.59 0 0 0-.76 1.37 8.9 8.9 0 0 0-.59 2.48 18.83 18.83 0 0 0-.41 3.94 5.67 5.67 0 0 0 .65 2.95c.06.11.11.15.17.12s.35-.27.65-.82a15.61 15.61 0 0 0 2.05-8.12zm9.23-.32a4.75 4.75 0 0 0-.09-.86V215a1.48 1.48 0 0 0 0-.62 3.2 3.2 0 0 1 .08-.73 1.8 1.8 0 0 1 .21-1.07 2.52 2.52 0 0 1 .57-.94c.11-.11.32-.29.62-.54s.74-.21.9-.24.48-.07 1.11.12a8.09 8.09 0 0 1 1.27.29 1.78 1.78 0 0 1 .74.65 6.65 6.65 0 0 0-.27 1.21 7.52 7.52 0 0 0-.14 1.7 10.94 10.94 0 0 0 .86-.86l.65-.69a9.42 9.42 0 0 1 2.1-.7 3.32 3.32 0 0 1 1.92.2 1.35 1.35 0 0 1 .58.37 2.52 2.52 0 0 1 .61 1.13c.16.53.15.87 0 1a4.25 4.25 0 0 1-1.64.32 2.24 2.24 0 0 0-.57.33l-2.14 1.68a3.77 3.77 0 0 0-.9.58l-.78 1.43a9.11 9.11 0 0 0-.08 1.07 10.63 10.63 0 0 0 0 1.41v4.53a16.1 16.1 0 0 1 0 1.66 3.93 3.93 0 0 1-.33.8q-.12.21-.78.21c-1.06.79-1.75.75-2-.13l-.53-.32a.74.74 0 0 1-.41-.41 1.84 1.84 0 0 1-.33-.54l-.16-.57-.25-.49a4.37 4.37 0 0 1-.2-1.58c-.06-1-.09-1.65-.09-1.89a3.58 3.58 0 0 0-.08-.76 1.31 1.31 0 0 0 .27-1 6.76 6.76 0 0 0-.1-1.09c-.06-.25-.06-.42 0-.49a3.3 3.3 0 0 0 0-1.13c-.09-.1-.1-.31 0-.61zm13.98-2.83a1.79 1.79 0 0 1 .61-2 1.4 1.4 0 0 1 .72-.23 15.39 15.39 0 0 1 1.74.47.39.39 0 0 1 .29.09.51.51 0 0 1 .24.08c.25 0 .37 0 .37.16a3.44 3.44 0 0 1 .46 1.44 19.5 19.5 0 0 0 .41 2.74.31.31 0 0 1 0-.12 7.93 7.93 0 0 0 .82-1.15c-.06-.05 0-.2.28-.45a7.58 7.58 0 0 1 .41-1.11 1.42 1.42 0 0 1 .37-.65 2.9 2.9 0 0 1 .49-.76c.14-.12.25-.23.33-.31A1.79 1.79 0 0 1 90 211a3.68 3.68 0 0 0 .45 0q.66-.07.78.12 1.28 0 1 3.12c-.11.93-.28 1.46-.5 1.6a4.83 4.83 0 0 1-1.25.45 9.57 9.57 0 0 0-1.29.41 3.06 3.06 0 0 0-1.84 1.89 3.21 3.21 0 0 1-.25.94c0 .44-.09.7-.1.78a2.79 2.79 0 0 0 0 .49 4.72 4.72 0 0 1-.25 1.56 17.27 17.27 0 0 0-.1 2.48 18.08 18.08 0 0 1-.08 2.4 2.18 2.18 0 0 1-.15.69 1.91 1.91 0 0 1 .05.29v.25a3.87 3.87 0 0 1-.78 1h-.62q-.94 0-1-.12a1.23 1.23 0 0 1-.62-.49.3.3 0 0 1-.25-.33.59.59 0 0 1-.45-.49q-.45-.49-.45-.66a7.22 7.22 0 0 1-.33-2.71v-2.09a1.72 1.72 0 0 0 .09-.28v-.37c.16-.17.19-.28.08-.33v-.33a.55.55 0 0 0 .06-.29c0-.16 0-.45.06-.86a22 22 0 0 0-.29-3.6 7 7 0 0 1-.57-1.69 1.3 1.3 0 0 0-.16-.57v-.37c-.11-.33-.21-.5-.29-.51s-.21-.06-.21-.09zm26.36 12.42v1.23a4 4 0 0 0 .1 1.05 2.16 2.16 0 0 1 .1.63c0 .44-.76.37-2.29-.2a1 1 0 0 1-.41 0 1 1 0 0 1-.43-.15 1.6 1.6 0 0 0-.27-.16c-.41-.11-.6-.34-.57-.7a2.63 2.63 0 0 0-.15-.45 1.72 1.72 0 0 1-.08-.7 12.27 12.27 0 0 0-.06-1.33 4.11 4.11 0 0 1 0-1c.22-1.29.38-2.16.49-2.63a11.83 11.83 0 0 0 .1-4.1c-.2-1.31-.71-2-1.53-2.05a2.18 2.18 0 0 0-1.77 1.27c-.92 1.65-1.33 4.58-1.33 8.72a7.42 7.42 0 0 0 .25 2 4.79 4.79 0 0 1 .18 1.58c0 .43-.42.6-1.15.54a3.24 3.24 0 0 1-1.41-.35l-.49-.25a.57.57 0 0 1-.62-.45 2.65 2.65 0 0 0-.37-.49l-.73-.94a.71.71 0 0 1-.25-.58v-1.02a1.44 1.44 0 0 1-.23-1.11q.06-.83.39-3.12A37.81 37.81 0 0 0 95 216a15.22 15.22 0 0 1 0-1.56l.37-3.73v-1.52a22 22 0 0 1 .62-5.17 3.14 3.14 0 0 1 .31-.59 1.11 1.11 0 0 0 .14-.35 1.64 1.64 0 0 1 .45-1.07h-.08a1 1 0 0 1 .45-.53 2.84 2.84 0 0 1 2.17.17 2.33 2.33 0 0 0 .41.24 1.14 1.14 0 0 0 .49.12c.5.33.71.63.66.91 0 .05-.11.49-.33 1.31a9.8 9.8 0 0 0-.16 1.06 43 43 0 0 0-1.23 7.55 4.13 4.13 0 0 1 1.23-.86 6.9 6.9 0 0 1 2.54-.58 4.53 4.53 0 0 1 4.06 2.38 8.39 8.39 0 0 1 .78 5q-.08.87-.78 6.93zm7.79 3.73l-.41-.08-.57-.57a.39.39 0 0 1-.37-.21c-.3-.35-.85-1.06-1.64-2.13l-.62-2.26a2.55 2.55 0 0 0-.24-1.14c-.28-1.23-.44-1.94-.5-2.12a8 8 0 0 1-.1-1.49 9.37 9.37 0 0 1 .1-1.81 23.88 23.88 0 0 1 1.52-3.85 1.6 1.6 0 0 0 .45-1l.66-1a6 6 0 0 1 1.92-1.56 5.56 5.56 0 0 1 1.4-.41 5.39 5.39 0 0 1 1.31.21c1.64.38 2.67.86 3.08 1.43l.12.21a6.57 6.57 0 0 1 .9 3.4c-.08.69-.15 1.26-.2 1.72a11.2 11.2 0 0 1-.91 2.55 10.89 10.89 0 0 1-1.19 1.84 2.9 2.9 0 0 1-1.23.66 1.93 1.93 0 0 1-.69.08h-1a2 2 0 0 0-.53 0 5 5 0 0 1-1.19-.21 9.2 9.2 0 0 0 .52 2.57 7 7 0 0 0 .84 2 7.2 7.2 0 0 0 1.35.86 2.5 2.5 0 0 0 1.31.06 2 2 0 0 0 1.19-.56l1.07-1.31c.68-.93 1.38-1 2.09-.24a1.22 1.22 0 0 1 .39 1 11.36 11.36 0 0 1-.84 2 8 8 0 0 1-1.32 1.64 6 6 0 0 1-1.51.66 4.38 4.38 0 0 1-1.15-.13 2.15 2.15 0 0 1-1.4 0c0-.05-.07-.09-.22-.1a2.74 2.74 0 0 1-.6-.14h.09-.5l-1.14-.62zm3.2-16.28c-.06-.13-.24-.19-.56-.16a.86.86 0 0 0-.71.49 11.4 11.4 0 0 0-1.81 5.7 2.14 2.14 0 0 0 2.38-1.23q1.28-4.02.7-4.8zm6.52 12.96a11.56 11.56 0 0 1 0-2.71q.94-3.43 1.47-5.24s.1-.37.29-1a6.26 6.26 0 0 1 .82-1.88 2.12 2.12 0 0 1 .33-.66c0-.25.3-.67.9-1.27l.45-.49a3 3 0 0 1 2.09-.66 3.5 3.5 0 0 1 1.15 0 17.79 17.79 0 0 1 2.71 1.6l.41.25a4 4 0 0 1 .61.2 3.34 3.34 0 0 1 .7.17l.53.41a1 1 0 0 1 .45.69 3 3 0 0 0-.24 1.6 16.07 16.07 0 0 0 .24 4.14 27.85 27.85 0 0 0 .78 4.68 5.2 5.2 0 0 0 .31 1.1 3.8 3.8 0 0 1 .27 1.15c0 .68-.65 1-1.93 1a2.93 2.93 0 0 1-2.63-1.64 3.71 3.71 0 0 0-.28-.66 1.66 1.66 0 0 1-.54-.82l-.08-.57a.5.5 0 0 1-.2-.33 11.65 11.65 0 0 1-1.23 1.43l-.86 1.36-.33.32c0 .11-.32.24-.86.39a2 2 0 0 1-1.19.07 2.65 2.65 0 0 1-.58-.09l-1.8-.73a1.5 1.5 0 0 1-.9-.58 2.18 2.18 0 0 1-.47-.35c-.3-.44-.42-.74-.39-.88zm8.65-9.92l-.21-.37c-.33 0-.94.67-1.84 2a14.53 14.53 0 0 0-2.26 4.3 9.21 9.21 0 0 0-.53 2.09c0 .8.16 1.32.49 1.56a.68.68 0 0 0 .47-.28 1.74 1.74 0 0 0 .31-.41 2.79 2.79 0 0 0 .74-.95c.35-.52.55-.79.57-.82l.37-.78.7-1.19c-.06 0 0-.31.24-.94a3.73 3.73 0 0 0 .54-1.31zM155 204.55a5.34 5.34 0 0 1-.17 1.77l-.29 2.66v3.49c0 .93 0 1.7.06 2.31a4.57 4.57 0 0 1-.1 1.54.39.39 0 0 1 .08.29v4.55c0 .74.08 1.13.08 1.52a5.52 5.52 0 0 0 .12 1.14v.54l.16 1.68v1.39a1.87 1.87 0 0 1 .09.56 4 4 0 0 0 .18.9 3.28 3.28 0 0 1 .14 1.17 2.34 2.34 0 0 1-2.91.65 1.31 1.31 0 0 1-.76-.41 1.49 1.49 0 0 1-.47-.74v-.81c-.13 0-.22-.27-.24-.7a.59.59 0 0 1-.13-.41c.09-.14 0-.37-.2-.7l-.45.78a.9.9 0 0 1-.45.41l-.17.49a9.46 9.46 0 0 0-.86 1l-.49.49a6.79 6.79 0 0 1-2.71-.17 2 2 0 0 1-.65-.08h-.29c-.05.06-.36-.07-.9-.37s-.71-.37-.74-.53h.25a.58.58 0 0 1-.41-.78 1.07 1.07 0 0 1-.62-.9l-.45-1.28a3.46 3.46 0 0 1 0-1.15 2.68 2.68 0 0 1 .21-1.11l-.12-.37-.09-.74c-.08-.1-.07-.35 0-.73l-.24-.41a9.3 9.3 0 0 1 .12-2v-.54c-.13-.21-.09-.68.13-1.39l.57-1.89c0-.05 0-.3.12-.73a2.92 2.92 0 0 1 .49-1.32l.74-1.23a2.83 2.83 0 0 0 .45-.61 1.82 1.82 0 0 1 1.73-.74 15.05 15.05 0 0 1 4.34.33v-1.44l-.12-1.72q0-1.23-.06-2.25a8.55 8.55 0 0 1 0-1.64s.16-.59.41-1.68a4.61 4.61 0 0 1 1.23-2.46 2.6 2.6 0 0 1 1-.21 1.79 1.79 0 0 1 .92.08 1.32 1.32 0 0 0 .46.21c.76.22 1.14.91 1.14 2.09zm-5.21 13.25l-.08-.62a.79.79 0 0 1-.15-.43 6.75 6.75 0 0 0-.14-.84 2.33 2.33 0 0 0-.37-1.31c-.08-.22-.41-.29-1-.21a9.23 9.23 0 0 0-1.36 3.24 1.72 1.72 0 0 1-.12.33 6.24 6.24 0 0 0-.33 1.21c-.11.56-.18.88-.2 1a1.35 1.35 0 0 0-.08.46 1.15 1.15 0 0 0-.09.53l-.16.78a.74.74 0 0 0-.08.61v.58a2.72 2.72 0 0 1 0 .69v.58l.08 1.39a3.39 3.39 0 0 0 .82 1.6c.22.06.35 0 .41 0a2.81 2.81 0 0 0 .9-1.68l.12-.53a2.53 2.53 0 0 0 .33-1.23l.21-.7a2.05 2.05 0 0 1 .16-.78 3 3 0 0 0 .2-.62 6.74 6.74 0 0 1 .54-1.64.67.67 0 0 1 0-.24v-.29q.34-1.83.34-1.88zm20.21.53l.25-1.8a3.61 3.61 0 0 1 .16-1.07 5.3 5.3 0 0 1 .7-2.09 9.38 9.38 0 0 1 .37-1.07c0-.05.26-.86.78-2.42l.49-1.18a2 2 0 0 1 .21-.64 5.69 5.69 0 0 0 .3-.94 7.59 7.59 0 0 1 .27-.93c.38-.73.72-1.36 1-1.88a3 3 0 0 1 3.2-1.48l1.31.13a8.4 8.4 0 0 1 1.89.69 3 3 0 0 1 1.27.8 2.2 2.2 0 0 1 .29 1.42c0 .32.11 1.75.24 4.26s.21 3.79.21 3.81l.2 1.77c0 .16.31 2.13.91 5.9l.9 2.87c.54 1.53.84 2.33.88 2.4s.16.36.35.88a1.25 1.25 0 0 1-.78 1.8 2.27 2.27 0 0 1-1.64-.2 3 3 0 0 1-.94-.37.9.9 0 0 0-.48-.39 1.68 1.68 0 0 1-.51-.31c-.3-.08-.57-.5-.82-1.27a2.56 2.56 0 0 1-.45-.65 1.29 1.29 0 0 1-.16-1 2.68 2.68 0 0 1-.29-1.51 3.85 3.85 0 0 1-.37-1.93 4.3 4.3 0 0 0-.41-2 11.6 11.6 0 0 1-4.47 1c-.3 0-.45.06-.45.17a6 6 0 0 1-.25 1.31l-.69 4.51c.27 2 0 3.09-.74 3.2a5.82 5.82 0 0 0-1.09.16 1.33 1.33 0 0 1-1.25-.28 4.05 4.05 0 0 1-1.33-1.09 1.91 1.91 0 0 1-.35-1.25q0-.57.21-2.46a2.59 2.59 0 0 0 .06-.92 4.7 4.7 0 0 1 .1-1.3l.66-2.54a3.5 3.5 0 0 0 .33-1.23 1 1 0 0 1-.05-.41zm5.54-1.19a3.33 3.33 0 0 1 1-.18 6.25 6.25 0 0 0 2.07-.72 3.82 3.82 0 0 0 0-1c-.08-1.15-.15-2-.2-2.46a13.9 13.9 0 0 0-.17-1.4 17.23 17.23 0 0 0-.61-3.24l-1.81 6.11a11.15 11.15 0 0 0-.45 3.12zm12.04 7.01c0-.11 0-.52.08-1.23a4.65 4.65 0 0 1-.33-2.21v-4.47c0-.05 0-.16-.1-.31a1 1 0 0 1-.12-.47V215a3.86 3.86 0 0 1 .16-2 .92.92 0 0 1 .45-.62 1 1 0 0 1 .82-.41 2.86 2.86 0 0 1 .9.13c.2-.08.37 0 .54.33a5.54 5.54 0 0 0 .53.2l.21.16a.62.62 0 0 1 .43.11 1.08 1.08 0 0 1 .14.51l.37 3.57v.69a5.68 5.68 0 0 1 .08.78v1.93h.17a9 9 0 0 1 .55-1.66 8.57 8.57 0 0 0 .39-1 1.14 1.14 0 0 1 .29-.62 1.94 1.94 0 0 0 .24-.7.91.91 0 0 1 .33-.53 5.59 5.59 0 0 1 .7-1.31l.12-.33a4.56 4.56 0 0 0 .25-.41 3.29 3.29 0 0 0 .65-.66l.33-.24c.05 0 .11-.08.16-.23s.41-.24 1.07-.26a3.18 3.18 0 0 1 1.31 0 1.29 1.29 0 0 1 .45 0l.25.24.33.09a2.22 2.22 0 0 1 .9 1.76 21.55 21.55 0 0 0 .2 3.69 19.31 19.31 0 0 0 1 4.18 6.66 6.66 0 0 0 1.33 2.46 2.19 2.19 0 0 1 .33 2.34 1.17 1.17 0 0 1-1 .65 2.11 2.11 0 0 1-.81 0 1.08 1.08 0 0 1-.54-.12.77.77 0 0 1-.78-.2.65.65 0 0 1-.57-.37 23.31 23.31 0 0 1-1.66-2.34c-.15-.3-.26-.51-.33-.62a1 1 0 0 1-.14-.28c0-.09-.07-.21-.13-.37a1.73 1.73 0 0 0-.3-.68.94.94 0 0 1-.23-.47 1.54 1.54 0 0 1-.16-.66.47.47 0 0 1-.25-.41c-.14-.08-.23-.32-.29-.73l-.16-1.07h-.08a10.72 10.72 0 0 0-2.34 5.86 6.48 6.48 0 0 1-.16 1.07c-.14.22-.08.56.16 1v.25c0 .11-.15.31-.45.61h-1.03a1.12 1.12 0 0 0-.32.13.83.83 0 0 0-.41.08.57.57 0 0 1-.45 0 4 4 0 0 1-.87-.1 1.76 1.76 0 0 0-.36-.13.75.75 0 0 1-.41-.26.3.3 0 0 1-.29-.25 2.92 2.92 0 0 1-1.07-1.8v-.62a2.74 2.74 0 0 0-.08-1.21zm19.23-21.65c1.83 0 3.12.37 3.85 1.11a9.24 9.24 0 0 1-.94 2.83 2.56 2.56 0 0 1-.53 1.11l-.53.53a.83.83 0 0 1-.41.12 2.12 2.12 0 0 1-2.3-.57 1.14 1.14 0 0 0-.39-.37c-.15-.08-.27-.33-.35-.74a1.63 1.63 0 0 1-.37-.82c-.05-1.69.56-2.76 1.85-3.2zm-.33 9.68c.27-.14.92 0 1.93.41a1.88 1.88 0 0 0 .49.33l.66.53a.73.73 0 0 1 .16.53v3.61a13.08 13.08 0 0 1-.08 1.48v.24c-.08 1.13 0 3.65.2 7.59.09.77-.09 1.23-.53 1.39a1.35 1.35 0 0 1-.9-.2.61.61 0 0 0-.29-.08h-.29l-.24.08a1.14 1.14 0 0 1-.45-.19 1 1 0 0 1-.43-.38.46.46 0 0 0-.35-.25.68.68 0 0 1-.49-.62 6.67 6.67 0 0 1-.6-1.31 1.28 1.28 0 0 0-.14-.45l-.21-3.57a3.75 3.75 0 0 1 .09-.94v-1c0-.3.05-.86.08-1.66s.07-1.46.12-2c-.05-.71-.08-1.19-.08-1.44a2.3 2.3 0 0 1 0-.53c-.3-.3-.29-.71 0-1.23a1.74 1.74 0 0 1 1-.41zm7.09 4.55l.46-2.09v-.9a1.26 1.26 0 0 0 .2-.53 1.54 1.54 0 0 1 1.68-1.52 4.8 4.8 0 0 1 1.68.45.52.52 0 0 1 .49.29.62.62 0 0 1 .37.24.56.56 0 0 1 0 .56 2.42 2.42 0 0 0-.15.57c0 .15-.09.64-.22 1.46a19.75 19.75 0 0 0-.5 4.14l2.22-3.36.82-1.48a4.76 4.76 0 0 1 1.27-.49 2.2 2.2 0 0 1 .66.12c.79.11 1.18.22 1.18.33l.5.33a1.87 1.87 0 0 1 .51.94 2.49 2.49 0 0 1-.08.72l-.27.88-.86 4.67 1.64-3.52.41-.54a4.16 4.16 0 0 1 .82-1.56l.41-.73c0-.09.1-.22.29-.41.08 0 .16-.13.24-.37a2.78 2.78 0 0 1 1-1 3.55 3.55 0 0 1 1.72-.08l.53.25a.94.94 0 0 0 .25.37h.16a1 1 0 0 1 .37 1 6.15 6.15 0 0 0-.16 1l-.46 3.19a.37.37 0 0 0-.08.25 13.52 13.52 0 0 0-.22 2.21c-.1 1.43-.15 2.82-.15 4.19v.49l.21.7.29.65a1 1 0 0 1-.23.84 1 1 0 0 1-.76.35c-1.86-.06-2.87-.64-3-1.76a.89.89 0 0 1-.12-.45 2.62 2.62 0 0 0-.17-.74V226l.08-.62c-.08 0-.12-.44-.12-1.33a7.77 7.77 0 0 1 .08-1.54 6.3 6.3 0 0 0 .17-1.47l-.41.49a5.31 5.31 0 0 0-.74 1l-.78 1.64a15.11 15.11 0 0 1-1.35 2.63 1.68 1.68 0 0 1-1.48.53 2.13 2.13 0 0 1-1.27-.29l-.51-.26c-.13-.07-.17-.38-.15-.93v-.41l.54-3.36a7.2 7.2 0 0 0 .24-1.07l.17-1v-.78l-.41.58-.37.73a.57.57 0 0 0-.17.41.93.93 0 0 0-.32.45l-1.6 3.24a7.31 7.31 0 0 0-.78 2.18c-.17.27-.37.59-.6.94s-.48.51-.74.47a1.3 1.3 0 0 1-.55-.18.3.3 0 0 1-.12-.33.56.56 0 0 1-.78-.33l-1-1.27a.53.53 0 0 1-.17-.45 1.42 1.42 0 0 0 0-.82 1 1 0 0 1-.08-.53 4.7 4.7 0 0 1-.08-1 3.65 3.65 0 0 0-.13-1.15 2.43 2.43 0 0 1 .09-.65V221c-.06-1.21 0-1.92.24-2.14a2.65 2.65 0 0 1 0-1.68zm33.5-.9a16.49 16.49 0 0 0 .45 4 29.41 29.41 0 0 0 .74 3.85 3 3 0 0 1 .08.82c.69 1.5 1.07 2.4 1.15 2.69a.9.9 0 0 1 0 .71 1.36 1.36 0 0 1-.76.68 4.61 4.61 0 0 1-1.13.39c-1 .33-1.65-.07-1.84-1.19a2.76 2.76 0 0 1-.47-.51 1.42 1.42 0 0 1-.35-.66.89.89 0 0 0-.29-.51 1.83 1.83 0 0 0-.37-.53 1.29 1.29 0 0 1-.33-.66l-.12-1.11h-.08c-.44.9-.73 1.53-.86 1.89a14.63 14.63 0 0 1-1.72 3.2 3 3 0 0 1-3.41.9 1.82 1.82 0 0 1-1.17-.45 1.64 1.64 0 0 0-.59-.45 2.11 2.11 0 0 1-.7-.62 5.66 5.66 0 0 1-.9-2.91v-1.07a6.78 6.78 0 0 0 0-2V222a12.37 12.37 0 0 1-.24-1.48 3.05 3.05 0 0 1 .08-.65 1.25 1.25 0 0 0 0-.51 1 1 0 0 1 0-.35v-.62l.2-2.21a20.67 20.67 0 0 1 1-2.59 2.09 2.09 0 0 1 .61-1.1 15.37 15.37 0 0 0 1.11-1.27q.28-.62 2.13-1h.7a2.45 2.45 0 0 1 .74.11 2.09 2.09 0 0 0 .45.1 2.24 2.24 0 0 0 .94.29 2.78 2.78 0 0 1 1.23.57 5.45 5.45 0 0 1 1.23.7l1.23.78 1.07.36a3 3 0 0 1 .45.41s-.12.81-.26 2.29zm-4.8 1.68a13.18 13.18 0 0 0 .17-1.43 3.82 3.82 0 0 1-.21-.91 2.37 2.37 0 0 0-.86-1 3.61 3.61 0 0 0-.78-.29 1.32 1.32 0 0 0-.51.27 7.62 7.62 0 0 0-.7 1.17 11 11 0 0 0-.9 3.4 27.46 27.46 0 0 0-.35 3.44c0 .72 0 1.58.09 2.61s.27 1.51.65 1.45.85-1 1.48-3a4 4 0 0 1 .28-.74zm10.38-11.23l.28-2.42v-1.27a1.36 1.36 0 0 1 .21-.82l.41-.58a8.26 8.26 0 0 1 1.43-1 1.77 1.77 0 0 1 1 0 2 2 0 0 1 .76.27l.45.36a.72.72 0 0 1 .37.66c.13.16.17.29.12.37a25.2 25.2 0 0 0-.82 4.84l-.33 5.57-.2 1.11a2.29 2.29 0 0 0 0 .62v.73a5 5 0 0 1-.17 1 1.26 1.26 0 0 1-.08.45c.06 0 .08.27.08.64a1.13 1.13 0 0 1-.12.67 11.19 11.19 0 0 0-.08 1.25 7.46 7.46 0 0 0 .1 1.23 5.29 5.29 0 0 1 .06 1.25l.17 1.56v.62c.05.49.08.88.08 1.18l.2 2.14.17 1.1a2.72 2.72 0 0 1-.11 1.36 1.22 1.22 0 0 1-.67.82 2.69 2.69 0 0 1-2.79-.7h-.33a2.37 2.37 0 0 1-.45-.9.54.54 0 0 1-.29-.58 1.09 1.09 0 0 0-.16-.73 1.09 1.09 0 0 1-.2-.58 4.41 4.41 0 0 0-.09-.94v-.33a.5.5 0 0 1-.12-.37l-.08-.74v-.32a4.32 4.32 0 0 0 0-.46.82.82 0 0 1 .1-.41 2.73 2.73 0 0 1 0-1.18c.16-2.11.25-3.56.25-4.35v-2.1c0-.66 0-1.49.06-2.5a5 5 0 0 1 .14-1.64v-.37a15.63 15.63 0 0 1 .31-2.69c.23-1.1.34-1.74.34-1.82zm-194.09 56.5a6.1 6.1 0 0 1-1.73-1.19 6.83 6.83 0 0 0-1.06-1 9.34 9.34 0 0 1-2.05-1.92 6.62 6.62 0 0 0-.29-.66 4.41 4.41 0 0 1-.94-1.8 1.12 1.12 0 0 1-.12-.17l-.27-.39a3.7 3.7 0 0 1-.39-.92 4.66 4.66 0 0 0-.82-1.43h-.16a3 3 0 0 1-.13.69v.82l-.24 2.38-.62 4a1.83 1.83 0 0 1 0 1.11 4.91 4.91 0 0 1-.2 1.06 1.59 1.59 0 0 1-.62 1 2.67 2.67 0 0 1-1.6.09 3.82 3.82 0 0 1-1.15-1.15c-.19-.08-.46-.52-.82-1.31a4.39 4.39 0 0 0 0-.93 2 2 0 0 1 0-.47.93.93 0 0 1 0-.37c-.06.06-.06-.21 0-.82v-.28a13.07 13.07 0 0 1 .24-1.32v-1.2a2.29 2.29 0 0 1 .27-.85v-2.21a5.57 5.57 0 0 0 .25-1.72c.05-.33.08-.65.1-1a6.08 6.08 0 0 1 .14-1.05 5.88 5.88 0 0 1 .12-1.37 6 6 0 0 0 .15-.66c0-.12 0-.32.06-.59l.29-1.77.12-2.58-.49-.33a5.77 5.77 0 0 1-1.85-1.06c-.13-.09-.18-.3-.14-.64a1.15 1.15 0 0 1 .55-.84 3.55 3.55 0 0 0 1.68-.7 2.32 2.32 0 0 0 .74-.41l.74-.24a3.65 3.65 0 0 1 1-.45 1.76 1.76 0 0 0 .66-.23 2.66 2.66 0 0 1 .94-.27c.28 0 .83-.1 1.66-.22a5.23 5.23 0 0 1 2.12.06 3.81 3.81 0 0 1 1.14.2 4.79 4.79 0 0 1 2.22.66 1.66 1.66 0 0 1 .82.37l.78.37 1 .82a7.47 7.47 0 0 1 1.56 1.76 1.39 1.39 0 0 1 .37 1.27q-.57 3.57-5 7.1l-1.19.53-2 1.27q1 1.44 2.66 3.36a6 6 0 0 0 .95 1.15l1.39 1.72.49.74 1.29 1.21a2 2 0 0 0 .7.7l.69.65a1.7 1.7 0 0 1 .78 1.68 1.09 1.09 0 0 1-1.14 1l-1-.08-2-.54zm-7-18.13a32.36 32.36 0 0 1-.54 5.13c.17-.14.41-.37.74-.7a15.78 15.78 0 0 1 2.3-1.68l.61-.45 1.23-.61 1.36-.91c-.06-.05 0-.19.2-.41a6.42 6.42 0 0 0 .9-2.37 1.52 1.52 0 0 0-.16-.8c-.11-.18-.45-.3-1-.35a2.09 2.09 0 0 0-.78-.21 7.54 7.54 0 0 0-2.23.21 2.86 2.86 0 0 1-.84.2l-.62.17h-.69l-.17 1.13s0 .3-.16.81a3.91 3.91 0 0 1-.12.84zM73.23 257l-1.51.12a6.36 6.36 0 0 1-2-.25l.12.78q.12 3.41 1.89 4.47a2.19 2.19 0 0 0 .82.21 1.8 1.8 0 0 0 .86-.33 1.59 1.59 0 0 0 .29-.45.32.32 0 0 1 .41-.33c1.12-1.42 2-2 2.54-1.68s.86.68.86.9a.57.57 0 0 1-.21.37v.24a4.27 4.27 0 0 1-.51 1.48 9.42 9.42 0 0 1-1.09 1.8 1.79 1.79 0 0 1-.73.87 4.29 4.29 0 0 1-2.79.65.8.8 0 0 1-.45-.16 1 1 0 0 0-.49 0h-.33a1.1 1.1 0 0 1-.62-.17 1.42 1.42 0 0 0-.57-.24 5.38 5.38 0 0 1-1.29-.62 1.93 1.93 0 0 0-.39-.29 4.22 4.22 0 0 1-.78-.86 5.14 5.14 0 0 1-.62-.57 2.36 2.36 0 0 0-.43-.53 1.13 1.13 0 0 1-.22-.74.85.85 0 0 1-.17-.54l-.16-.32a.51.51 0 0 0-.25-.45.86.86 0 0 1-.24-.62v-.33c-.11-.05-.14-.22-.08-.49v-1.72a1.91 1.91 0 0 1 .08-.7v-.37a3.73 3.73 0 0 0 .12-.65 2.34 2.34 0 0 1 .37-1.07V254a1.34 1.34 0 0 0 0-.33 1.19 1.19 0 0 1 .1-.45c.07-.16.28-.78.64-1.84l.6-1.48a6.71 6.71 0 0 1 .9-1.35 3.65 3.65 0 0 1 .33-.74l.54-.49a1.35 1.35 0 0 1 .73-.53 2.29 2.29 0 0 1 .86-.29l1.15-.16h.82a4.1 4.1 0 0 1 1.48.37 3.93 3.93 0 0 1 3.07 3.69 5.51 5.51 0 0 1-.41 2.25 19.44 19.44 0 0 1-1.47 2.99c-.49.9-1.08 1.36-1.77 1.36zm.13-5.91a3.47 3.47 0 0 0 0-1.56 1.17 1.17 0 0 0-.78-.24c-.41 0-.78.38-1.11 1.15a7.37 7.37 0 0 0-1 2.17c-.31 1.15-.45 1.76-.45 1.84a3.92 3.92 0 0 0 1.06.15 1.84 1.84 0 0 0 .94-.43 5.86 5.86 0 0 0 1.34-3.08zm7.01-2.79a3.93 3.93 0 0 1 3-1.43 5.76 5.76 0 0 1 4.7 1.56 5.54 5.54 0 0 1 1.64 3.32c.06 1.09-.22 1.68-.84 1.76a2.48 2.48 0 0 1-1.77-.37c-.24 0-.56-.15-.94-.53a2.46 2.46 0 0 1-.66-.94l-.45-1c-.22-.49-.49-.76-.82-.82-.41.16-.61.57-.61 1.23a6.08 6.08 0 0 0 1.84 3.69 6.35 6.35 0 0 0 .66.78q3.24 3.57 3.36 5.74a2.28 2.28 0 0 1-.57 1.84 6 6 0 0 1-4.59 2.18 6.09 6.09 0 0 1-4.68-1.76 1.4 1.4 0 0 1-.49-.95 2.06 2.06 0 0 1-.16-1 5.43 5.43 0 0 1 0-1.73q.24-1.31 1.92-1.35c.41 0 .67.25.78.74a9.4 9.4 0 0 0 1 2.75 1.67 1.67 0 0 0 1.53.61c.91-.05 1.34-.56 1.29-1.52a3.84 3.84 0 0 0-1.37-2.66 4 4 0 0 0-.8-.76 4.34 4.34 0 0 1-.51-.39.57.57 0 0 0-.21-.24 16.84 16.84 0 0 1-2.07-2.18 5.15 5.15 0 0 1-1.29-2.87 4.67 4.67 0 0 1 1.11-3.7zm14.27-1.39c.93-.77 2.36-.87 4.3-.33a3.82 3.82 0 0 1 1.27 1 4 4 0 0 1 .45 1.43 8.2 8.2 0 0 1 .07 2.05 4.29 4.29 0 0 1-.58 1.83 2.41 2.41 0 0 1-1.66 1c-.57 0-.93-.18-1.07-.53a1.78 1.78 0 0 1-.16-1.36 4.76 4.76 0 0 0-.25-2.05.67.67 0 0 0-.41-.08l-.49.9c0 .11-.28.93-.67 2.44a22.77 22.77 0 0 0-.64 2.87c0 .4-.07.76-.12 1.09a12.89 12.89 0 0 0 .41 4 2.64 2.64 0 0 0 .82 1.37 1.23 1.23 0 0 0 .71.12 3.21 3.21 0 0 0 1.3-.32 5.42 5.42 0 0 0 1.14-1.19c0-.11.24-.28.7-.5l.33-.32c1-.11 1.54.32 1.6 1.31a1.23 1.23 0 0 1-.25.9 1.39 1.39 0 0 1-.28.53 11.68 11.68 0 0 1-1.11 1.89.81.81 0 0 0-.58.16 2.33 2.33 0 0 1-1.88.45 1.09 1.09 0 0 0-.25 0c-.08 0-.5-.07-1.27-.2h-.57a4.26 4.26 0 0 1-1.44-.53 4.6 4.6 0 0 1-1.15-.54l-.57-.57a2.52 2.52 0 0 1-.51-.39 1.59 1.59 0 0 1-.45-.53 3.36 3.36 0 0 0-.29-.58 1.47 1.47 0 0 1-.23-.72l-.2-.82a1 1 0 0 0-.12-.61 1.81 1.81 0 0 0-.13-.45 10.91 10.91 0 0 0-.08-1.23c-.08-.85 0-1.38.21-1.6a2.78 2.78 0 0 0-.09-.74v-1.56a6.19 6.19 0 0 1 .37-1.77 4.13 4.13 0 0 1 .5-1.43l.2-.54a2.59 2.59 0 0 1 .7-1.35l.61-.74.49-.82a2.77 2.77 0 0 1 1.32-.94zm13.69.49a2.05 2.05 0 0 1 .68 1.48 4.92 4.92 0 0 1 0 1.31c-.07.25-.19 1.09-.35 2.54a1.86 1.86 0 0 0-.13.78l-.41 3.65v2.54a1.54 1.54 0 0 0 .17.58c0 .11.15.19.37.24a.34.34 0 0 0 .45-.16.73.73 0 0 1 .24-.58 9.93 9.93 0 0 1 .54-1.14 1.26 1.26 0 0 1 .14-.46 2.51 2.51 0 0 0 .21-.51 1.87 1.87 0 0 1 .1-.31 2.32 2.32 0 0 0 .41-.9 1.38 1.38 0 0 1 .49-.94 5.32 5.32 0 0 1 .41-1l.08-.37a5.48 5.48 0 0 0 .7-2.18l.2-2 .41-1.64a2.56 2.56 0 0 1 1.65-1.59 1.7 1.7 0 0 1 1.33.16 2.5 2.5 0 0 1 1.06.72 1.25 1.25 0 0 1 .23.67v3.38c0 1.64 0 2.88.08 3.73a18.16 18.16 0 0 0 1.43 6.31 1.44 1.44 0 0 1-.49 2 2.55 2.55 0 0 1-1.43.41 2 2 0 0 1-1.93-1.07 4.52 4.52 0 0 1-.53-1.1l-.33-.9a3.67 3.67 0 0 0-.33-.91l-.33-.78a26 26 0 0 1-2.25 4.92 2.5 2.5 0 0 1-1.15.91c-.49-.11-1-.26-1.6-.45-.35-.14-.94-.33-1.76-.58-.55 0-.86-.14-.94-.26a2.11 2.11 0 0 0-.19-.25.18.18 0 0 1-.06-.1.44.44 0 0 0-.41-.21 1.53 1.53 0 0 0-.49-.61 2.9 2.9 0 0 0-.12-.41c-.31-.19-.55-.77-.74-1.73a8 8 0 0 1-.31-2.64 30 30 0 0 1 0-3.05c0-.41.06-.76.06-1a1.37 1.37 0 0 1 0-.74 2.29 2.29 0 0 0 .08-.78l.17-1.72.32-1.47a2.4 2.4 0 0 1 .42-1.28 3.53 3.53 0 0 1 .57-.77c.11-.22.49-.4 1.15-.54a3.12 3.12 0 0 0 .53.06 5.24 5.24 0 0 1 .61.09 3.29 3.29 0 0 1 .99.65zm23.49 4.27v.45a8.19 8.19 0 0 1-1.47 4.51 5.15 5.15 0 0 1-.58.65l-.9.9a3.15 3.15 0 0 1-.74.54l-.9.24a2.26 2.26 0 0 0-.7-.16.79.79 0 0 1-.78-.08l-.43-.17a3.12 3.12 0 0 0-1-.2 10.71 10.71 0 0 1 .08 1.43l.5 1.89a2.52 2.52 0 0 0 .88 1.09 2.11 2.11 0 0 0 .94.24 1.71 1.71 0 0 0 .78-.1c.18-.08.48-.21.92-.37l.82-.41a1 1 0 0 1 1.48.25 1.22 1.22 0 0 1 .28 1 1.73 1.73 0 0 1-.49 1.09 2.46 2.46 0 0 1-1.27 1.06 2.25 2.25 0 0 0-.37.17 5.52 5.52 0 0 1-4.1.24l-.78-.37a.35.35 0 0 1-.24-.12 2.76 2.76 0 0 1-1.07-.61 5.29 5.29 0 0 1-.8-.82l-.31-.45c0-.09-.15-.26-.28-.54a12.15 12.15 0 0 1-1-2.5l-.24-1.19a3 3 0 0 0 0-.94v-.66c-.25-.43-.1-1.43.45-3a13.19 13.19 0 0 1 1.06-3.65l.54-1.07a5 5 0 0 1 .49-.61 3.34 3.34 0 0 1 .94-.82.67.67 0 0 1 .49-.29 1.35 1.35 0 0 1 .54-.28 1.77 1.77 0 0 1 1-.37 5.33 5.33 0 0 1 1.89-.13 4.46 4.46 0 0 1 4 2.46l.29.91a1.33 1.33 0 0 0 .12.49 1 1 0 0 0-.04.3zm-3.65-.58v-.9l-.24-.08a1.07 1.07 0 0 1-.45-.08 1 1 0 0 0-.46.24 1.8 1.8 0 0 0-.73.78l-.9 1.8a8.31 8.31 0 0 0-.7 3.28c.71.31 1.23.29 1.56 0a2.46 2.46 0 0 0 .49-.57 1.23 1.23 0 0 1 .26-.56 3.61 3.61 0 0 0 .49-1.34 4.59 4.59 0 0 0 .68-2.57zm32.93 14.23a3.14 3.14 0 0 1-1.77.29 4.54 4.54 0 0 1-2.42-.33l-.86-.29-1.27-.61h-.2c-.02 0-.1 0-.21-.11a2 2 0 0 0-.57-.32 5.1 5.1 0 0 1-1.15-1 6.94 6.94 0 0 1-1.31-3.48c0-.11.13-.32.41-.62a2.54 2.54 0 0 1 2.05-1 1.18 1.18 0 0 1 .78.32l1.35 1.77a6.87 6.87 0 0 0 .74.65l.53.58.82.69a.68.68 0 0 0 .33.09 4.84 4.84 0 0 0 .9.2 8.76 8.76 0 0 0 1.39-.45 4.87 4.87 0 0 1 .66-.57l.58-.66a3 3 0 0 0 .28-.66v-.71a4.39 4.39 0 0 0-.14-1 3.32 3.32 0 0 0-.58-.65 6 6 0 0 0-.69-1.07 17.51 17.51 0 0 0-2.38-1.31l-.78-.45-.74-.66a4.67 4.67 0 0 1-1.51-1.11c-.28-.19-.48-.34-.62-.45a6.91 6.91 0 0 1-1.35-1.39s-.23-.57-.7-1.56l-.37-1.6.17-1.06a4.66 4.66 0 0 1-.17-1.6 4.55 4.55 0 0 0 .41-1c-.08-.41.29-1.21 1.11-2.41a8.43 8.43 0 0 1 1.8-2l1.4-.74.65-.29 1-.12a9.78 9.78 0 0 1 1.9 0 3.42 3.42 0 0 1 1.6.33 14.73 14.73 0 0 1 1.64 1.1 5.25 5.25 0 0 1 2 2.87 7.7 7.7 0 0 1 .08 4.47c0 .11-.38.33-1.15.66h-1a4.26 4.26 0 0 1-2.5-1.36c-.22-.13-.38-.51-.49-1.14s-.17-1.06-.41-1.19a5.39 5.39 0 0 1-.33-.74c-.47-.6-.77-.9-.92-.9a1.38 1.38 0 0 0-.52.12 3.67 3.67 0 0 0-1.55 2.67 4 4 0 0 0 .73 2.91c.3.43.5.65.58.65a4.74 4.74 0 0 0 .94 1l.57.61 1.73 1.27.69.7.78.49a5.51 5.51 0 0 1 1.27.78 10.6 10.6 0 0 1 2 2.3 9 9 0 0 1 .66 2.21v1.6l-.21.94a3 3 0 0 0-.45.82s-.15.4-.45 1.11a4.85 4.85 0 0 1-1 .86 8.61 8.61 0 0 1-2.75 1.48 3.79 3.79 0 0 1-1.01.07zm7.25-9.32l.17-2.09a9.82 9.82 0 0 1 1.72-4.84 4.94 4.94 0 0 1 3.93-1.72h.25a4.89 4.89 0 0 1 3.45 1 6.31 6.31 0 0 1 1.7 2 11.89 11.89 0 0 1 .71 1.56 5.66 5.66 0 0 1 .21 1.44c0 1.17-.18 1.84-.7 2a9.81 9.81 0 0 1-.7 6.2 12.55 12.55 0 0 1-1.18 2.05 2.7 2.7 0 0 1-2 .82 17.35 17.35 0 0 1-2.57-.17 6.22 6.22 0 0 1-2.4-1 4.78 4.78 0 0 1-1.84-2.89 18.49 18.49 0 0 1-.75-4.36zm7.51-3.85c-.2-1.1-.73-1.6-1.6-1.52a1.62 1.62 0 0 0-1.27 1 7.28 7.28 0 0 0-.64 3.71 21.23 21.23 0 0 0 .33 3.28 4.32 4.32 0 0 0 .8 1.75 1 1 0 0 0 1 .53c.77 0 1.33-.64 1.68-1.93l.33-1a.31.31 0 0 0 .08-.41 6.74 6.74 0 0 0 .45-2.42 1.29 1.29 0 0 1-.49-.53 3.69 3.69 0 0 1-.24-1 .93.93 0 0 1-.33-.78c-.05-.36-.08-.6-.1-.71zm7.62-1.63a1.07 1.07 0 0 1 .53-.9v-.09c0-.19.22-.53.64-1a9 9 0 0 0 .72-.9 7.23 7.23 0 0 1 1.19-.62 1.83 1.83 0 0 0 .45.08h.08a5.81 5.81 0 0 1 2.73.09 3.34 3.34 0 0 1 2.15 1.31 9.14 9.14 0 0 1 .65 1.64 7.35 7.35 0 0 1 .5 2.09 4.54 4.54 0 0 1 0 2v.41a.42.42 0 0 1-.21.32.67.67 0 0 1-.47.15.55.55 0 0 0-.47.2 1.16 1.16 0 0 1-.84.23c-.43 0-.65-.12-.68-.37a1.41 1.41 0 0 1-.39-.29c-.18-.16-.27-.28-.27-.37l-.2-.28c0-.06-.05-.14-.16-.25a1.87 1.87 0 0 1-.29-1.15 2.79 2.79 0 0 0 .12-1.15 2.23 2.23 0 0 0-.41-1.23.38.38 0 0 0-.14-.06l-.27-.06c-.05-.19-.11-.29-.16-.29a1.47 1.47 0 0 0-.62.46q-.57 1.59-.69 2.13l-.25 2.5V257a4.07 4.07 0 0 0 .33 1.81 1.78 1.78 0 0 0 .16.57 5.64 5.64 0 0 0 .86 1.89l.21.24a.73.73 0 0 0 .7.58c.32 0 .79-.38 1.39-1.15 0-.08.15-.41.53-1a1.79 1.79 0 0 1 1.81-.62.57.57 0 0 1 .53.62 8.81 8.81 0 0 1-.25 1.84 1.21 1.21 0 0 0-.41.82 5.52 5.52 0 0 0-.28.82.33.33 0 0 0-.25.13l-.2.4a.2.2 0 0 0-.21.17c-.3.35-.51.53-.61.53a1.12 1.12 0 0 1-.66.13 3.54 3.54 0 0 1-1.15.32h-.7l-.45-.16h-.37a1.8 1.8 0 0 0-.75-.19.72.72 0 0 1-.39 0 1.68 1.68 0 0 1-.33-.22c-.33-.28-.54-.41-.64-.41a1 1 0 0 1-.47-.25 1.08 1.08 0 0 1-.53-.28l-.17-.42c.06-.19 0-.3-.08-.32-.35 0-.56-.07-.61-.21l-.25-.33a1.84 1.84 0 0 0-.33-.86l-.49-1.47v-1.03l-.49-3.2v-.57c.25-.9.37-1.37.37-1.39a2.63 2.63 0 0 1 .41-1.6 3 3 0 0 1 .53-1.67zM197 237.68a5.53 5.53 0 0 1 .78-.12 1.85 1.85 0 0 1 2.34.9 13.3 13.3 0 0 1-.37 3.41 16.46 16.46 0 0 1-.78 2l-.41.61a1.93 1.93 0 0 1-.53.7c-.28.24-.48.36-.6.35a1.91 1.91 0 0 1-.61-.29 2.25 2.25 0 0 1-.52-.39l-.08-.29-.2-.82-.82-1a2.14 2.14 0 0 1-.25-1 2.62 2.62 0 0 1 .29-1.76 1.88 1.88 0 0 1 .12-.41 3.6 3.6 0 0 1 1.64-1.89zm-1.23 18.41a5.2 5.2 0 0 1 .14-1 2.21 2.21 0 0 0 .09-.88 7.48 7.48 0 0 1 0-1.4 3 3 0 0 0 0-1.1 2.55 2.55 0 0 1-.17-1.32 2.94 2.94 0 0 1 .54-.92 2.32 2.32 0 0 1 .9-.72 2.48 2.48 0 0 1 1.47.05 3.28 3.28 0 0 1 .82.82 2.45 2.45 0 0 1 .31.94 11.74 11.74 0 0 1 .25 1.78c0 .64.07 1.57.1 2.79s.08 2.84.16 4.88.11 3.3.07 3.79a1.59 1.59 0 0 1-.54 1.13c-.31.26-.59.31-.82.16a2.08 2.08 0 0 0-.71-.3 1.5 1.5 0 0 1-1.15-.54 3.66 3.66 0 0 1-.78-.39 1.71 1.71 0 0 1-.78-1.29 8.23 8.23 0 0 1-.12-2.66v-1.48l.2-1.39zm19.73-4.42v.45a8.19 8.19 0 0 1-1.47 4.51 5.15 5.15 0 0 1-.58.65l-.9.9a3.15 3.15 0 0 1-.74.54l-.9.24a2.35 2.35 0 0 0-.7-.16.79.79 0 0 1-.78-.08l-.43-.17a3.12 3.12 0 0 0-1-.2 12.7 12.7 0 0 1 .08 1.43l.49 1.89a2.53 2.53 0 0 0 .89 1.09 2.11 2.11 0 0 0 .94.24 1.71 1.71 0 0 0 .78-.1c.17-.08.48-.21.92-.37l.82-.41a1 1 0 0 1 1.48.25 1.26 1.26 0 0 1 .28 1 1.73 1.73 0 0 1-.49 1.09 2.46 2.46 0 0 1-1.27 1.06 2.25 2.25 0 0 0-.37.17 5.52 5.52 0 0 1-4.1.24l-.78-.37a.35.35 0 0 1-.24-.12 2.76 2.76 0 0 1-1.07-.61 5.29 5.29 0 0 1-.8-.82l-.31-.45c0-.09-.15-.26-.28-.54a12.15 12.15 0 0 1-1-2.5l-.25-1.19a2.63 2.63 0 0 0 .05-.94v-.66c-.25-.43-.1-1.43.45-3a13.19 13.19 0 0 1 1.06-3.65l.54-1.07a5 5 0 0 1 .49-.61 3.34 3.34 0 0 1 .94-.82.67.67 0 0 1 .49-.29 1.35 1.35 0 0 1 .54-.28 1.74 1.74 0 0 1 1-.37 5.33 5.33 0 0 1 1.89-.13 4.46 4.46 0 0 1 4 2.46l.29.91a1.33 1.33 0 0 0 .12.49 1 1 0 0 0-.08.3zm-3.65-.58v-.9l-.24-.08a1 1 0 0 1-.45-.08 1 1 0 0 0-.46.24 1.8 1.8 0 0 0-.73.78l-.91 1.8a8.32 8.32 0 0 0-.69 3.28c.71.31 1.23.29 1.55 0a2.28 2.28 0 0 0 .5-.57 1.23 1.23 0 0 1 .33-.55 3.61 3.61 0 0 0 .49-1.34 4.67 4.67 0 0 0 .61-2.58zm12.57-11.52c-.07.68-.1 1.18-.1 1.5V243l-.05.29v.86a6.12 6.12 0 0 1 0 .74l1.44-.29c.11 0 .5-.07 1.19-.2a8.5 8.5 0 0 1 1.86-.19 1.63 1.63 0 0 1 1.15.35 1.3 1.3 0 0 1 .31.94 1.17 1.17 0 0 1-.29.95l-.16.24a1.52 1.52 0 0 1-.94.7l-1.44.21-1.85.45-1.1.41c0 .68.07 1.43.14 2.25s.1 1.4.1 1.72l.13 1.52c.35 2.41.82 4.87 1.39 7.38a5.81 5.81 0 0 1 .53 1.68l.33.86c.11.93-.46 1.4-1.72 1.4-.22 0-.77-.06-1.64-.17-.25 0-.6-.27-1.07-.74a2 2 0 0 0-.45-.53l-.78-1.88a3.53 3.53 0 0 1-.2-.78 4.22 4.22 0 0 1-.74-2.05 2.88 2.88 0 0 0-.08-.41v-.58a3.06 3.06 0 0 1-.41-1.6c-.08-.87-.18-1.69-.29-2.46a19.1 19.1 0 0 0-.24-3.07l-.09-.9v-.78h-.49a3.45 3.45 0 0 1-1 0 2.78 2.78 0 0 1-2.5-1c-.33-.74-.35-1.21 0-1.43a6.74 6.74 0 0 1 2.22-.66 5.45 5.45 0 0 0 2-.53 2.72 2.72 0 0 1 .12-1.15 4.08 4.08 0 0 1 .27-1.21 1.87 1.87 0 0 0 .18-.55 11.46 11.46 0 0 1 .7-2.91 4.9 4.9 0 0 1 .45-1.27c.35-.52 1.09-.69 2.21-.5a1.63 1.63 0 0 1 1 .54c-.03-.09-.02.24-.09.92zm18.84 14.6l-.17.82-.08 1a3.59 3.59 0 0 1-.12.82 9.54 9.54 0 0 1-.25 2.54 12.45 12.45 0 0 1-.32 2.54 11.33 11.33 0 0 0-.09 1.73 1.75 1.75 0 0 0-.2.73 7.72 7.72 0 0 1-.12.87 2 2 0 0 1-.37.94 1.73 1.73 0 0 1-.17.78 3.7 3.7 0 0 0-.35.92 2.19 2.19 0 0 1-.16.57.37.37 0 0 0-.06.15l-.7 1.27a4 4 0 0 1-.41.53 2.89 2.89 0 0 1-.53.86c0 .11-.47.45-1.4 1a2.89 2.89 0 0 1-1.1.53l-.37.16a3.08 3.08 0 0 1-1.52.41 6.26 6.26 0 0 1-2.66 0l-1.07-.37v.03a3.83 3.83 0 0 1-1.15-.78 2.82 2.82 0 0 1-1.19-.93 5.48 5.48 0 0 1-.53-1.57 1.73 1.73 0 0 1 .23-1 .84.84 0 0 1 .84-.59 5 5 0 0 1 1 .49 9.11 9.11 0 0 0 .86.78 2.51 2.51 0 0 0 1.9 1 1.7 1.7 0 0 0 .53-.06 7.25 7.25 0 0 1 .94-.18c-.08-.09 0-.17.11-.27a1.16 1.16 0 0 1 .35-.18 1 1 0 0 0 .49-.37l.53-.41a4.79 4.79 0 0 1 .58-.58l.4-.57a2 2 0 0 1 .46-.94c0-.09 0-.26.2-.54a2.52 2.52 0 0 1 .08-.49l.37-1.64v-.25a2.64 2.64 0 0 0 .21-1.06l.28-1.15h-.16l-.78 1.27s0 .09-.12.19a4.51 4.51 0 0 0-.33.43l-.78 1.06-.41.25a2.72 2.72 0 0 1-2.38.65 3.06 3.06 0 0 0-1-.39 1.61 1.61 0 0 1-.93-.51 3.06 3.06 0 0 1-1-.7 1.21 1.21 0 0 1-.17-.51 1.75 1.75 0 0 0-.2-.63 20.2 20.2 0 0 1-.41-3.69 3.11 3.11 0 0 1 0-.8q.06-.68.06-.9a3.31 3.31 0 0 1 .08-.6l.17-1.27a3 3 0 0 0 .37-1.23 12.14 12.14 0 0 1 .9-2.58l.2-.54.37-.61a2.86 2.86 0 0 1 .33-1.11c.22-.46.36-.74.41-.82a3.06 3.06 0 0 1 .29-.33c.13-.13.27-.28.41-.45a1.53 1.53 0 0 1 1.39-.33 3.17 3.17 0 0 1 1.29.48c.29.2.36.62.23 1.25-.27 1.28-.41 1.94-.41 2l-.29.78a1.88 1.88 0 0 1-.16.86c0 .11-.11.77-.33 2a2 2 0 0 0-.29.78 3.19 3.19 0 0 1-.2.92c-.14.4-.23.71-.29.93-.08.52-.14 1-.16 1.35a2.84 2.84 0 0 1-.33 1.11v.9c0 .33.2.52.7.57s1-.31 1.43-1.1l1.11-2.3.33-.62.12-.36a2.12 2.12 0 0 0 .49-.5l.25-.61c0-.08.54-1.76 1.64-5l.24-1.07a2.29 2.29 0 0 1 .39-1.44 1.25 1.25 0 0 1 .76-.53 5.48 5.48 0 0 1 1.93.58c.33 0 .53.36.61 1.1a9 9 0 0 1-.33 2 9.06 9.06 0 0 0-.12 1.36 5.46 5.46 0 0 0-.19 1.17z" class="cls-4"/></svg>