<svg id="Layer_1" data-name="Layer 1" xmlns="http://www.w3.org/2000/svg" viewBox="0 0 932.39 662.5"><defs><style>.cls-1{opacity:0.5;}.cls-2{fill:#79bdca;}.cls-3,.cls-4{fill:none;stroke-linecap:round;stroke-linejoin:round;stroke-width:2px;}.cls-3{stroke:#000;}.cls-4{stroke:#fff;}.cls-5{fill:#eb8a53;}</style></defs><title>Artboard 2</title><g class="cls-1"><path class="cls-2" d="M195.43,472.67a3,3,0,0,1-.93-.95c-2.54-4.09-18.16-28.32-22.9-11.83-3.92,13.6-3.23,23.43-2.66,27.41a3.09,3.09,0,0,1-1.39,3c-4.28,2.74-14.88,10.19-13.93,16.23,1.19,7.54,25.32,3.63,28.65.47,2.75-2.61,26.8,11.23,35,16.1a3.09,3.09,0,0,0,4.29-1.21L233,500.59a3.08,3.08,0,0,0-1-4Z"/><path class="cls-2" d="M252.29,546.31a3.71,3.71,0,0,1,1.1,1.13c2.73,4.39,18.13,28.07,22.84,11.72,3.81-13.23,3.26-22.9,2.7-27.08a3.64,3.64,0,0,1,1.64-3.55c4.45-2.88,14.56-10.13,13.63-16-1.19-7.55-25.32-3.64-28.65-.48-2.69,2.56-25.84-10.67-34.54-15.79a3.66,3.66,0,0,0-5.08,1.43L215.09,518a3.65,3.65,0,0,0,1.23,4.78Z"/><path class="cls-3" d="M273.6,560.36c3.81-13.23,3.26-22.9,2.7-27.07a3.67,3.67,0,0,1,1.64-3.55c4.45-2.88,14.57-10.14,13.64-16-1.19-7.54-25.32-3.63-28.65-.47-2.55,2.41-23.3-9.24-32.94-14.86a2.8,2.8,0,0,0-.67-.61L192.8,473.87a3,3,0,0,1-.93-.95c-2.53-4.09-18.15-28.31-22.9-11.82-3.91,13.59-3.23,23.42-2.66,27.4a3.07,3.07,0,0,1-1.39,3c-4.28,2.74-14.88,10.2-13.93,16.23,1.19,7.54,25.32,3.63,28.65.47,2.58-2.44,23.79,9.51,33.27,15a3.79,3.79,0,0,0,.78.71l36,23.52a3.86,3.86,0,0,1,1.11,1.13C253.5,553,268.89,576.71,273.6,560.36Z"/><line class="cls-4" x1="189.89" y1="500.42" x2="251.75" y2="536.5"/></g><g class="cls-1"><circle class="cls-5" cx="780.55" cy="272.58" r="43.22"/><path class="cls-4" d="M756,237s36.79,30.38,18.52,78.38"/><path class="cls-4" d="M805.09,237s16.07,15.31,13.95,55.25"/><path class="cls-4" d="M742.57,251.93s47,23.63,74.33-2.73"/><path class="cls-4" d="M760.84,311.06s55.66-3.6,62.93-29.34"/><ellipse class="cls-3" cx="777.18" cy="272.58" rx="42.05" ry="43.22"/></g><g class="cls-1"><circle class="cls-5" cx="496.86" cy="347.37" r="50.99"/><path class="cls-4" d="M467.91,305.4s43.41,35.84,21.85,92.47"/><path class="cls-4" d="M525.81,305.4s19,18.06,16.46,65.18"/><path class="cls-4" d="M452.06,323s55.42,27.88,87.69-3.22"/><path class="cls-4" d="M473.62,392.77s65.65-4.25,74.23-34.61"/><ellipse class="cls-3" cx="492.89" cy="347.37" rx="49.61" ry="50.99"/></g><g class="cls-1"><circle class="cls-2" cx="123.79" cy="150.75" r="61.89"/><path class="cls-4" d="M88.65,99.8S141.34,143.3,115.17,212"/><path class="cls-4" d="M158.93,99.8s23,21.92,20,79.12"/><path class="cls-4" d="M69.41,121.18s67.27,33.84,106.44-3.91"/><path class="cls-4" d="M95.57,205.84s79.7-5.15,90.11-42"/><ellipse class="cls-3" cx="118.97" cy="150.75" rx="60.22" ry="61.89"/></g><g class="cls-1"><circle class="cls-2" cx="550.96" cy="115.21" r="39.92"/><path class="cls-4" d="M528.29,82.34s34,28.06,17.11,72.4"/><path class="cls-4" d="M573.63,82.34s14.85,14.14,12.89,51"/><path class="cls-4" d="M515.88,96.13s43.4,21.83,68.66-2.52"/><path class="cls-4" d="M532.76,150.75s51.41-3.33,58.12-27.1"/><ellipse class="cls-3" cx="547.85" cy="115.21" rx="38.85" ry="39.92"/></g></svg>